<?xml version="1.0" standalone="no"?>
<!DOCTYPE svg PUBLIC "-//W3C//DTD SVG 1.1//EN" "http://www.w3.org/Graphics/SVG/1.1/DTD/svg11.dtd" >
<svg xmlns="http://www.w3.org/2000/svg">
<metadata>Generated by IcoMoon</metadata>
<defs>
<font id="icomoon" horiz-adv-x="1024">
<font-face units-per-em="1024" ascent="960" descent="-64" />
<missing-glyph horiz-adv-x="1024" />
<glyph unicode="&#x20;" horiz-adv-x="512" d="" />
<glyph unicode="&#xe900;" glyph-name="login" d="M672 480h-320c-27.57 0-50-22.43-50-50s22.43-50 50-50h320c27.57 0 50 22.43 50 50s-22.43 50-50 50zM672 410h-320c-11.031 0-20 8.969-20 20s8.969 20 20 20h320c11.031 0 20-8.969 20-20s-8.969-20-20-20zM672 340h-320c-27.57 0-50-22.43-50-50s22.43-50 50-50h320c27.57 0 50 22.43 50 50s-22.43 50-50 50zM672 270h-320c-11.031 0-20 8.969-20 20s8.969 20 20 20h320c11.031 0 20-8.969 20-20s-8.969-20-20-20zM496 150c0 27.57-22.43 50-50 50h-94c-27.57 0-50-22.43-50-50s22.43-50 50-50h94c27.57 0 50 22.43 50 50zM446 130h-94c-11.031 0-20 8.969-20 20s8.969 20 20 20h94c11.031 0 20-8.969 20-20s-8.969-20-20-20zM672 200h-94c-27.57 0-50-22.43-50-50s22.43-50 50-50h94c27.57 0 50 22.43 50 50s-22.43 50-50 50zM672 130h-94c-11.031 0-20 8.969-20 20s8.969 20 20 20h94c11.031 0 20-8.969 20-20s-8.969-20-20-20zM869 748h-27v1c0 30.328-24.672 55-55 55h-65v61c0 52.383-42.617 95-95 95h-230c-52.383 0-95-42.617-95-95v-61h-67c-30.328 0-55-24.672-55-55v-1h-25c-24.813 0-45-20.188-45-45v-666c0-24.813 20.188-45 45-45h25v-1c0-30.328 24.672-55 55-55h552c30.328 0 55 24.672 55 55v1h27c24.813 0 45 20.188 45 45v666c0 24.813-20.188 45-45 45zM332 865c0 35.844 29.156 65 65 65h230c35.844 0 65-29.156 65-65v-230c0-17.711-7.125-33.781-18.648-45.516-8.477 39.508-31.359 74.906-64.25 98.906 8.219 15.398 12.898 32.969 12.898 51.609v44c0 60.656-49.344 110-110 110s-110-49.344-110-110v-44c0-18.641 4.68-36.211 12.898-51.609-32.883-23.992-55.773-59.375-64.25-98.906-11.523 11.734-18.648 27.805-18.648 45.516zM592 740c0-44.109-35.891-80-80-80s-80 35.891-80 80v44c0 44.109 35.891 80 80 80s80-35.891 80-80zM432.492 664.102c20.047-20.984 48.266-34.102 79.508-34.102s59.461 13.117 79.508 34.102c29.742-21.742 49.492-54.859 54.328-91.313-5.969-1.805-12.289-2.789-18.836-2.789h-230c-6.547 0-12.867 0.984-18.828 2.789 4.836 36.469 24.578 69.586 54.32 91.313zM884 37c0-8.273-6.727-15-15-15h-42c-8.281 0-15-6.719-15-15v-16c0-13.789-11.211-25-25-25h-552c-13.789 0-25 11.211-25 25v15.961c0 0.016 0 0.023 0 0.039s0 0.023 0 0.039v655.961c0 8.281-6.719 15-15 15s-15-6.719-15-15v-641h-25c-8.273 0-15 6.727-15 15v666c0 8.273 6.727 15 15 15h40c3.977 0 7.797 1.578 10.609 4.391 2.813 2.82 4.391 6.633 4.391 10.609v16c0 13.789 11.211 25 25 25h67v-139c0-52.383 42.617-95 95-95h230c52.383 0 95 42.617 95 95v139h65c13.789 0 25-11.211 25-25v-672c0-8.281 6.719-15 15-15s15 6.719 15 15v641h27c8.273 0 15-6.727 15-15zM424 64h-48c-8.281 0-15-6.719-15-15s6.719-15 15-15h48c8.281 0 15 6.719 15 15s-6.719 15-15 15zM539 64h-54c-8.281 0-15-6.719-15-15s6.719-15 15-15h54c8.281 0 15 6.719 15 15s-6.719 15-15 15zM646 64h-48c-8.281 0-15-6.719-15-15s6.719-15 15-15h48c8.281 0 15 6.719 15 15s-6.719 15-15 15zM547 773c-8.281 0-15-6.719-15-15v-20c0-8.281 6.719-15 15-15s15 6.719 15 15v20c0 8.281-6.719 15-15 15zM477 773c-8.281 0-15-6.719-15-15v-20c0-8.281 6.719-15 15-15s15 6.719 15 15v20c0 8.281-6.719 15-15 15z" />
<glyph unicode="&#xe901;" glyph-name="support1" d="M658.42 258.361v17.83c5.039 4.070 9.884 8.527 14.535 13.179 37.242 41.007 60.693 92.654 67.057 147.68 33.47 5.1 63.638 23.036 84.112 50.002 28.102 39.73 30.621 96.903 7.171 168.611-1.378 4.135-4.109 7.687-7.752 10.078l-10.659 7.171c1.572 64.702-20.788 127.708-62.793 176.944-52.134 58.723-132.175 88.375-238.187 88.763-105.818 0-186.053-30.040-238.187-87.988-42.005-49.236-64.365-112.242-62.793-176.944l-10.659-7.171c-3.644-2.391-6.374-5.943-7.752-10.078-23.45-72.096-20.931-128.881 7.171-168.611 20.396-27.155 50.564-45.297 84.112-50.583 6.391-55.113 29.914-106.833 67.25-147.874 4.615-4.642 9.465-9.041 14.535-13.179v-17.83c-74.227-14.342-370.556-83.918-365.517-281.599 0-10.703 8.678-19.381 19.381-19.381h985.113c10.703 0 19.381 8.678 19.381 19.381 5.039 197.682-291.29 267.258-365.517 281.599zM272.166 480.462c-16.469 5.531-30.822 16.023-41.087 30.040l0.969-0.194c-19.381 28.296-21.125 71.127-3.876 127.718l14.148 9.496c5.952 3.973 9.23 10.902 8.527 18.024-3.261 57.924 15.58 114.929 52.715 159.502 43.8 49.614 114.151 74.421 208.341 74.809s164.541-25.195 209.116-74.809c37.136-44.573 55.976-101.578 52.715-159.502-0.703-7.122 2.575-14.051 8.527-18.024l14.148-9.496c17.249-56.397 16.086-99.422-3.876-127.718-10.335-14.029-24.751-24.521-41.281-30.040 23.378 26.6 34.8 61.635 31.59 96.903-3.631 21.219-14.693 40.452-31.203 54.266-8.334 193.805-144.191 215.512-202.72 215.512-12.389 0.036-24.763-0.872-37.017-2.713-12.251 1.844-24.628 2.75-37.017 2.713-58.142 0-193.805-21.319-202.72-215.512-16.616-13.702-27.814-32.869-31.59-54.072-3.232-35.27 8.193-70.315 31.59-96.903zM713.073 639.383c-81.323-4.7-162.138 15.589-231.597 58.142-7.861 5.521-18.581 4.448-25.195-2.519-38.761-41.668-109.5-51.358-143.61-53.49 10.465 137.020 93.414 166.866 163.184 166.866 11.105 0.080 22.196-0.829 33.141-2.713 2.558-0.523 5.194-0.523 7.752 0 10.945 1.88 22.036 2.788 33.141 2.713 69.189 0 152.525-30.621 162.215-168.805l0.969-0.194zM319.454 476.78l0.775-0.194c0.041 4.777-1.684 9.402-4.845 12.985-26.551 30.427-38.761 58.142-35.466 81.011 1.58 12.738 7.871 24.422 17.636 32.753 25.582 0 116.283 4.845 174.425 55.041 65.48-37.644 139.596-57.676 215.124-58.142 12.985 0 26.164 0 39.924 2.132 9.499-8.111 15.703-19.414 17.442-31.784 3.295-22.481-8.915-50.583-35.466-81.011-3.161-3.583-4.886-8.208-4.845-12.985 0 0 0-3.876 0-10.078l-112.795-60.467c-22.385 21.193-57.713 20.226-78.905-2.159s-20.226-57.713 2.159-78.905c22.385-21.193 57.713-20.226 78.905 2.159 9.821 10.373 15.291 24.117 15.284 38.4 0.087 1.744 0.087 3.488 0 5.233l88.957 47.676c-7.636-38.216-25.599-73.607-51.94-102.329-34.357-33.078-80.863-50.474-128.493-48.064h-9.69c-47.528-2.36-93.933 14.952-128.299 47.87-61.243 61.049-59.886 159.889-59.886 160.858zM570.045 365.536c0-9.526-7.723-17.249-17.249-17.249s-17.249 7.723-17.249 17.249c0 9.526 7.723 17.249 17.249 17.249s17.249-7.723 17.249-17.249zM492.523-2.695h-453.117c15.311 145.548 251.947 206.403 325.981 222.101v-34.691c0-43.994 53.49-77.522 127.136-83.143v-104.267zM404.147 184.715v66.863c32.215-14.94 67.406-22.363 102.911-21.706h9.69c35.505-0.657 70.695 6.766 102.911 21.706v-66.863c0-18.412-42.056-44.963-107.756-44.963s-107.756 26.551-107.756 44.963zM531.284-3.276v105.043c73.646 5.039 127.136 38.761 127.136 83.143v33.916c74.615-15.504 310.089-76.359 325.981-222.101h-453.117z" />
<glyph unicode="&#xe902;" glyph-name="menu" d="M0 919.040h1024v-81.92h-1024v81.92zM0 632.32h1024v-81.92h-1024v81.92zM0 345.6h1024v-81.92h-1024v81.92zM0 58.88h1024v-81.92h-1024v81.92z" />
<glyph unicode="&#xe903;" glyph-name="menu-square-button" d="M918.966-64h-813.948c-57.885 0-105.018 47.101-105.018 105.034v813.933c0 57.917 47.133 105.034 105.018 105.034h813.948c57.901 0 105.018-47.117 105.018-105.034v-813.933c0-57.932-47.086-105.034-105.018-105.034zM105.018 907.483c-28.966 0-52.501-23.551-52.501-52.517v-813.933c0-28.966 23.551-52.517 52.501-52.517h813.948c28.95 0 52.517 23.551 52.517 52.517v813.933c0 28.966-23.566 52.517-52.517 52.517h-813.948zM273.51 489.568h476.981v-78.775h-476.981v78.775zM273.525 690.883h476.981v-78.775h-476.981v78.775zM273.525 283.94h476.981v-78.791h-476.981v78.791z" />
<glyph unicode="&#xe904;" glyph-name="addressuser" d="M631.999 440c-11.039 0-20-8.961-20-20s8.961-20 20-20 20 8.961 20 20-8.961 20-20 20zM204.336 220.43l-200-252c-4.773-6.008-5.68-14.219-2.344-21.125 3.336-6.914 10.336-11.305 18.008-11.305h983.999c7.672 0 14.672 4.391 18.008 11.305 3.344 6.906 2.43 15.117-2.344 21.125l-200 252c-3.789 4.781-9.562 7.57-15.664 7.57h-175.195l149.57 234.593c35.086 52.601 53.625 113.945 53.625 177.406 0 176.445-143.547 320-320 320s-320-143.554-320-320c0-63.461 18.539-124.797 53.625-177.406l149.57-234.593h-175.195c-6.102 0-11.867-2.789-15.664-7.57zM129.664 62.001h120.93l-68.25-86h-120.937zM420.703 188l54.828-86h-142.125l68.258 86zM603.304 188h19.039l68.25-86h-142.117zM722.343 62.001l68.25-86h-557.187l68.258 86zM841.663-23.999l-68.258 86h120.937l68.25-86zM862.593 102h-120.93l-68.258 86h120.937zM279.015 484.625c-30.758 46.047-47.016 99.773-47.016 155.375 0 154.39 125.609 280 280 280s280-125.609 280-280c0-55.601-16.258-109.328-47.008-155.375-0.086-0.117-0.156-0.234-0.234-0.352-13.133-20.602-222.64-349.21-232.757-365.070-25.445 39.914-206.843 324.429-232.757 365.070-0.070 0.117-0.148 0.234-0.227 0.352zM350.593 188l-68.25-86h-120.937l68.258 86zM511.999 440c109.797 0 200 88.914 200 200 0 110.281-89.719 200-200 200s-200-89.719-200-200c0-111.117 90.234-200 200-200zM511.999 800c88.226 0 160-71.773 160-160 0-89.047-72.351-160-160-160-87.672 0-160 70.953-160 160 0 88.226 71.773 160 160 160zM596.241 371.75c-9.453 5.703-21.75 2.656-27.453-6.805l-73.922-122.64c-5.703-9.461-2.656-21.75 6.805-27.453 9.5-5.727 21.773-2.617 27.453 6.805l73.922 122.64c5.703 9.461 2.656 21.75-6.805 27.453z" />
<glyph unicode="&#xe905;" glyph-name="appointment" d="M924 872h-95.334v28c0 33.084-26.916 60-60 60s-60-26.916-60-60v-28h-336v28c0 33.084-26.916 60-60 60s-60-26.916-60-60v-28.74c-1.7 0.47-3.482 0.74-5.332 0.74h-79.688c-55.14 0-100-44.86-100-100v-340.666c0-11.046 8.956-20 20-20s20 8.954 20 20v234.666h721.020c11.044 0 20 8.954 20 20s-8.956 20-20 20h-721.020v66c0 33.084 26.916 60 60 60h79.688c1.85 0 3.632 0.272 5.332 0.74v-25.74c0-33.084 26.916-60 60-60s60 26.916 60 60v25h336v-25c0-33.084 26.916-60 60-60s60 26.916 60 60v25h95.334c33.084 0 60-26.916 60-60v-759.988c0-19.856-16.154-36.012-36.012-36.012s-36.012 16.156-36.012 36.012v51.738c0 11.046-8.956 20-20 20h-232.642c-11.044 0-20-8.954-20-20s8.956-20 20-20h212.642v-31.738c0-13.022 3.296-25.286 9.090-36.012h-805.066c-19.85 0-36 16.15-36 36v31.75h447.65c11.044 0 20 8.954 20 20s-8.956 20-20 20h-199.832c34.948 30.098 57.14 74.618 57.14 124.25 0 90.43-73.57 164-164 164s-164-73.57-164-164c0-49.632 22.192-94.152 57.14-124.25h-54.098c-11.044 0-20-8.954-20-20v-51.75c0-41.906 34.094-76 76-76h871.988c41.912 0 76.012 34.098 76.012 76.012v759.988c0 55.14-44.86 100-100 100zM332.666 807c0-11.028-8.972-20-20-20s-20 8.972-20 20v93c0 11.028 8.972 20 20 20s20-8.972 20-20v-93zM788.666 807c0-11.028-8.972-20-20-20s-20 8.972-20 20v93c0 11.028 8.972 20 20 20s20-8.972 20-20v-93zM56.958 208c0 68.374 55.626 124 124 124s124-55.626 124-124-55.626-124-124-124-124 55.626-124 124zM936.618 700.14c-3.718 3.72-8.878 5.86-14.138 5.86-5.262 0-10.42-2.14-14.14-5.86s-5.86-8.88-5.86-14.14 2.138-10.42 5.86-14.14c3.722-3.72 8.878-5.86 14.14-5.86 5.26 0 10.42 2.14 14.138 5.86 3.72 3.72 5.862 8.88 5.862 14.14s-2.14 10.42-5.862 14.14zM597.298 77.9c-3.718 3.72-8.878 5.84-14.138 5.84s-10.42-2.12-14.14-5.84c-3.72-3.74-5.86-8.88-5.86-14.14 0-5.28 2.138-10.42 5.86-14.16 3.72-3.72 8.88-5.84 14.14-5.84s10.42 2.12 14.138 5.84c3.72 3.74 5.862 8.9 5.862 14.16s-2.14 10.4-5.862 14.14zM452.49 352c-41.906 0-76-34.094-76-76s34.094-76 76-76 76 34.094 76 76-34.094 76-76 76zM452.49 240c-19.85 0-36 16.15-36 36s16.15 36 36 36 36-16.15 36-36-16.15-36-36-36zM639.156 352c-41.906 0-76-34.094-76-76s34.094-76 76-76 76 34.094 76 76-34.094 76-76 76zM639.156 240c-19.85 0-36 16.15-36 36s16.15 36 36 36 36-16.15 36-36-16.15-36-36-36zM825.824 352c-41.906 0-76-34.094-76-76s34.094-76 76-76c41.906 0 76 34.094 76 76s-34.094 76-76 76zM825.824 240c-19.85 0-36 16.15-36 36s16.15 36 36 36 36-16.15 36-36-16.15-36-36-36zM265.824 560c-41.906 0-76-34.094-76-76s34.094-76 76-76 76 34.094 76 76-34.094 76-76 76zM265.824 448c-19.85 0-36 16.15-36 36s16.15 36 36 36c19.85 0 36-16.15 36-36s-16.15-36-36-36zM639.156 560c-41.906 0-76-34.094-76-76s34.094-76 76-76 76 34.094 76 76-34.094 76-76 76zM639.156 448c-19.85 0-36 16.15-36 36s16.15 36 36 36 36-16.15 36-36-16.15-36-36-36zM825.824 560c-41.906 0-76-34.094-76-76s34.094-76 76-76c41.906 0 76 34.094 76 76s-34.094 76-76 76zM825.824 448c-19.85 0-36 16.15-36 36s16.15 36 36 36 36-16.15 36-36-16.15-36-36-36zM452.49 560c-41.906 0-76-34.094-76-76s34.094-76 76-76 76 34.094 76 76-34.094 76-76 76zM452.49 448c-19.85 0-36 16.15-36 36s16.15 36 36 36 36-16.15 36-36-16.15-36-36-36zM252.208 256.742c-7.812 7.81-20.472 7.81-28.286 0l-65.132-65.134-22.258 22.258c-7.812 7.81-20.472 7.81-28.286 0-7.81-7.81-7.81-20.474 0-28.286l36.402-36.398c3.752-3.75 8.838-5.858 14.142-5.858s10.39 2.108 14.142 5.858l79.276 79.276c7.81 7.81 7.81 20.474 0 28.284z" />
<glyph unicode="&#xe906;" glyph-name="baby" d="M689.982 761.648c0 11.568-4.506 22.448-12.688 30.63-16.886 16.884-44.366 16.888-61.258 0-5.858-5.858-5.858-15.354-0.002-21.21 5.858-5.86 15.354-5.858 21.212-0.002 5.192 5.196 13.64 5.194 18.834 0.002 2.516-2.518 3.902-5.862 3.902-9.42 0-3.556-1.386-6.9-3.902-9.416-5.858-5.858-5.858-15.354 0-21.21 2.93-2.93 6.768-4.394 10.608-4.394 3.838 0 7.678 1.464 10.606 4.392 8.18 8.182 12.688 19.058 12.688 30.628zM999.098 536.19c14.482 35.934 22.294 74.488 22.732 114.104 0.862 77.946-26.836 151.21-78.29 207.958 15.26 14.456 33.886 25.158 54.092 31.028 7.956 2.31 12.532 10.632 10.22 18.586-2.31 7.956-10.634 12.532-18.586 10.22-25.048-7.276-48.11-20.608-66.938-38.626-88.69 80.38-214.414 98.684-321.982 55.516-20.476 16.216-45.644 25.024-72.008 25.024-0.586 0-1.174-0.004-1.758-0.012-30.378-0.452-58.944-12.534-80.43-34.022-36.526-36.526-44.066-91.258-21.218-135.364-9.064 0.416-18.328-0.95-27.282-4.312-67.118-25.19-165.21-91.346-223.314-150.61-31.93-32.564-48.75-77.474-46.15-123.214 0.764-13.426 2.038-28.334 3.768-44.396-39.32-36.416-74.916-82.388-98.33-127.224-15.532-29.746-38.906-85.142-20.932-121.944 0.070-0.144 0.144-0.294 0.218-0.446-28.174-76.772-9.48-162.662 48.702-220.842 40.262-40.262 93.782-61.618 148.38-61.614 24.296 0 48.81 4.248 72.452 12.922 0.15-0.076 0.304-0.158 0.454-0.23 8.802-4.298 19.31-6.412 31.224-6.412 29.62 0 67.898 13.070 110.038 38.134 38.994 23.194 76.94 54.204 107.848 87.53 16.122-1.732 31.050-2.996 44.456-3.76 3.088-0.176 6.168-0.262 9.246-0.262 42.496 0 83.602 16.636 113.97 46.41 33.966 33.304 71.168 80.54 102.072 129.6 4.416 7.008 2.312 16.268-4.696 20.684-7.010 4.416-16.27 2.314-20.684-4.698-29.714-47.168-65.32-92.424-97.692-124.166-26.55-26.032-63.172-39.748-100.51-37.62-7.044 0.4-14.55 0.95-22.444 1.636 3.99 5.13 7.796 10.276 11.374 15.42 18.824 27.080 28.56 59.17 28.158 92.798-0.684 57.168-7.806 155.588-25.738 260.368-0.176 1.024-0.36 2.074-0.54 3.108 96.634-19.364 177.496-45.202 234.816-75.122 17.394-9.082 25.314-29.784 18.416-48.156-3.328-8.864-7.534-18.568-12.506-28.85-3.606-7.46-0.484-16.426 6.974-20.034 2.104-1.018 4.328-1.5 6.52-1.5 5.572 0 10.926 3.12 13.512 8.472 5.368 11.102 9.94 21.654 13.584 31.37 3.36 8.95 4.724 18.21 4.31 27.272 16.716-8.66 34.954-12.968 53.158-12.968 29.82 0 59.53 11.518 82.208 34.196 21.488 21.49 33.572 50.054 34.020 80.434 0.392 26.938-8.398 52.712-24.894 73.614zM467.36 904.756c27.502 27.5 68.496 32.722 101.162 15.354-26.806-14.398-52.024-32.92-74.676-55.572-16.956-16.956-31.822-35.572-44.462-55.59-14.16 31.85-7.864 69.968 17.976 95.808zM82.822 18.826c-46.566 46.566-63.616 113.84-46.016 176.13 22.854-14.704 68.294-35.16 161.136-61.022 11.038-39.556 22.212-74.272 32.914-102.062 10.862-28.204 20.222-46.706 28.204-59.036-62.316-17.65-129.644-0.604-176.238 45.99zM542.466 128.316c-31.638-45.514-81.596-91.164-133.64-122.12-48.76-29.002-91.97-40.7-112.766-30.55-0.464 0.228-0.962 0.534-1.482 0.904-0.554 0.526-1.144 1.006-1.764 1.44-12.302 11.266-36.848 57.232-68.048 171.378-0.108 0.484-0.238 0.96-0.392 1.43-3.536 12.978-7.156 26.828-10.854 41.602-2.012 8.036-10.152 12.924-18.192 10.91-8.036-2.010-12.92-10.156-10.91-18.19 1.474-5.894 2.958-11.686 4.446-17.422-113.796 32.992-141.138 54.678-147.48 61.932-0.104 0.13-0.216 0.252-0.324 0.378-0.852 1.024-1.25 1.714-1.418 2.058-15.976 32.716 23.55 123.96 96.87 198.648 7.16-52.962 18.16-114.516 31.776-176.708 1.772-8.094 9.772-13.21 17.86-11.446 8.092 1.772 13.214 9.768 11.446 17.858-21.172 96.716-35.924 191.576-39.458 253.752-2.122 37.328 11.588 73.962 37.62 100.51 55.494 56.604 148.806 119.646 212.434 143.53 18.368 6.9 39.074-1.020 48.156-18.416 23.666-45.338 55.802-137.198 79.044-254.364 0.084-1.366 0.346-2.694 0.78-3.956 16.182-82.69 27.886-177.744 29.086-277.836 0.33-27.356-7.552-53.4-22.79-75.322zM839.732 400.696c-5.84 7.374-13.262 13.648-22.060 18.242-63.026 32.9-148.612 59.882-254.498 80.246-15.37 79.634-40.672 178.7-80.236 254.488-4.592 8.798-10.868 16.22-18.242 22.062 13.33 24.764 30.228 47.458 50.36 67.59 110.7 110.7 288.74 112.772 396.89 4.622 108.148-108.148 106.076-286.19-4.622-396.886-20.134-20.138-42.828-37.032-67.592-50.364zM968.756 403.36c-25.84-25.838-63.958-32.134-95.806-17.976 20.018 12.638 38.63 27.506 55.588 44.462 22.388 22.388 41.040 47.498 55.642 74.548 17.28-32.642 12.040-73.568-15.424-101.034zM825.648 625.98c-11.572 0-22.448-4.506-30.63-12.688-5.858-5.858-5.856-15.354 0.002-21.21 5.86-5.856 15.354-5.858 21.212 0.002 2.516 2.516 5.86 3.9 9.416 3.9s6.902-1.384 9.418-3.902c2.516-2.516 3.902-5.86 3.902-9.416 0-3.558-1.386-6.902-3.902-9.42-5.858-5.858-5.856-15.354 0-21.21 2.93-2.928 6.768-4.392 10.606-4.392s7.678 1.464 10.608 4.394c8.182 8.182 12.688 19.058 12.688 30.628s-4.506 22.448-12.688 30.626c-8.186 8.186-19.062 12.688-30.632 12.688zM732.966 642.48c-7.176-0.488-14.21 2.132-19.282 7.204-5.074 5.074-7.7 12.104-7.206 19.284 0.568 8.264-5.672 15.422-13.934 15.99-8.278 0.542-15.422-5.672-15.99-13.936-1.088-15.832 4.716-31.342 15.92-42.548 10.316-10.312 24.272-16.046 38.774-16.046 1.254 0 2.514 0.042 3.774 0.128 8.266 0.568 14.502 7.728 13.936 15.99-0.57 8.264-7.724 14.488-15.992 13.934z" />
<glyph unicode="&#xe907;" glyph-name="bin" d="M846.89 839.425h-136.723v88.846c0 17.883-14.425 31.729-32.307 31.729-1.735 0-2.892-0.579-3.457-1.157-0.579 0.578-1.736 1.157-2.314 1.157h-325.95c-17.882 0-31.728-13.846-31.728-31.729v-88.847h-137.301c-39.236 0-69.808-30.572-69.808-69.808v-114.225h60.576v-650.162c0-39.237 29.994-69.23 69.23-69.23h549.785c39.236 0 69.806 29.993 69.806 69.23v650.162h59.998v114.225c0 39.236-30.584 69.809-69.808 69.809zM377.868 896.543h268.265v-57.118h-268.265v57.118zM792.665 5.227c0-4.048-1.735-5.77-5.772-5.77h-549.785c-4.036 0-5.772 1.723-5.772 5.77v650.165h561.328v-650.165zM852.663 718.849h-681.326v50.768c0 4.038 1.735 6.351 5.772 6.351h669.782c4.038 0 5.773-2.313 5.773-6.351v-50.768zM628.249 580.968h64.035v-524.973h-64.035v524.973zM480.561 580.968h64.035v-524.973h-64.035v524.973zM332.871 580.968h64.035v-524.973h-64.035v524.973z" />
<glyph unicode="&#xe908;" glyph-name="call" d="M997.13 170.039l-207.261 138.219c-26.302 17.399-61.559 11.674-81.004-13.156l-60.373-77.624c-7.759-10.23-21.863-13.198-33.087-6.963l-11.484 6.331c-38.070 20.751-85.439 46.585-180.879 142.059s-121.326 142.879-142.077 180.879l-6.297 11.484c-6.321 11.222-3.409 25.386 6.825 33.207l77.572 60.355c24.82 19.447 30.553 54.694 13.174 81.004l-138.219 207.261c-17.811 26.792-53.546 34.835-81.12 18.259l-86.669-52.062c-27.232-16.010-47.211-41.938-55.748-72.351-31.209-113.715-7.731-309.97 281.37-599.105 229.974-229.956 401.178-291.797 518.853-291.797 27.082-0.116 54.058 3.407 80.202 10.476 30.419 8.527 56.352 28.508 72.351 55.748l52.114 86.617c16.6 27.58 8.561 63.337-18.243 81.158zM985.97 106.391l-51.994-86.669c-11.488-19.661-30.14-34.117-52.046-40.34-104.978-28.822-288.383-4.949-565.932 272.6s-301.419 460.938-272.598 565.932c6.231 21.933 20.705 40.608 40.39 52.114l86.669 51.994c11.964 7.199 27.474 3.709 35.203-7.917l138.102-207.243c7.547-11.412 5.067-26.708-5.699-35.153l-77.59-60.355c-23.612-18.055-30.355-50.724-15.818-76.653l6.161-11.194c21.809-39.998 48.923-89.757 147.912-188.73 98.989-98.971 148.732-126.087 188.712-147.894l11.21-6.177c25.926-14.536 58.597-7.795 76.653 15.818l60.355 77.59c8.447 10.76 23.736 13.238 35.153 5.699l207.243-138.219c11.634-7.723 15.124-23.241 7.915-35.203zM580.236 789.245c160.138-0.178 289.911-129.953 290.091-290.091 0-9.425 7.639-17.063 17.063-17.063s17.063 7.639 17.063 17.063c-0.198 178.979-145.238 324.022-324.218 324.218-9.425 0-17.063-7.639-17.063-17.063s7.639-17.063 17.063-17.063zM580.236 686.861c103.617-0.122 187.584-84.090 187.706-187.706 0-9.425 7.641-17.063 17.063-17.063 9.425 0 17.063 7.639 17.063 17.063-0.142 122.458-99.377 221.693-221.833 221.833-9.425 0-17.063-7.639-17.063-17.063s7.639-17.063 17.063-17.063zM580.236 584.476c47.097-0.056 85.263-38.222 85.321-85.321 0-9.425 7.641-17.063 17.063-17.063s17.063 7.639 17.063 17.063c-0.076 65.938-53.51 119.374-119.448 119.448-9.425 0-17.063-7.639-17.063-17.063s7.639-17.063 17.063-17.063z" />
<glyph unicode="&#xe909;" glyph-name="cancel" d="M874.020 810.020c-96.754 96.754-225.185 149.98-362.020 149.98s-265.266-53.226-362.020-149.98-149.98-225.185-149.98-362.020 53.226-265.266 149.98-362.020 225.185-149.98 362.020-149.98 265.266 53.226 362.020 149.98 149.98 225.185 149.98 362.020-53.226 265.266-149.98 362.020zM832.862 127.138c-85.764-85.764-199.758-132.956-320.862-132.956s-235.098 47.192-320.862 132.956c-176.916 176.916-176.916 464.808 0 641.724 85.764 85.764 199.758 132.956 320.862 132.956s235.098-47.192 320.862-132.956c176.916-176.916 176.916-464.808 0-641.724zM737.616 673.616c-11.421 11.421-29.737 11.421-41.158 0l-184.458-184.458-184.458 184.458c-11.421 11.421-29.737 11.421-41.158 0s-11.421-29.737 0-41.158l184.458-184.458-184.458-184.458c-11.421-11.421-11.421-29.737 0-41.158 5.603-5.603 13.145-8.62 20.471-8.62s14.869 2.801 20.471 8.62l184.458 184.458 184.458-184.458c5.603-5.603 13.145-8.62 20.471-8.62 7.542 0 14.869 2.801 20.471 8.62 11.421 11.421 11.421 29.737 0 41.158l-184.027 184.458 184.458 184.458c11.421 11.421 11.421 29.737 0 41.158z" />
<glyph unicode="&#xe90a;" glyph-name="close1" d="M602.561 447.989l402.675 402.675c25.018 24.996 25.018 65.554 0 90.551-25.018 25.018-65.533 25.018-90.551 0l-402.675-402.675-402.697 402.675c-25.018 25.018-65.533 25.018-90.551 0-25.018-24.996-25.018-65.554 0-90.551l402.697-402.675-402.697-402.675c-25.018-24.996-25.018-65.554 0-90.551 12.509-12.488 28.903-18.742 45.275-18.742s32.766 6.254 45.275 18.763l402.697 402.675 402.675-402.675c12.509-12.509 28.903-18.763 45.275-18.763s32.766 6.254 45.275 18.763c25.018 24.996 25.018 65.554 0 90.551l-402.675 402.654z" />
<glyph unicode="&#xe90b;" glyph-name="credit-card1" d="M917.334 789.334h-810.668c-58.794 0-106.666-47.872-106.666-106.668v-469.334c0-58.794 47.872-106.666 106.666-106.666h810.666c58.794 0 106.666 47.872 106.666 106.666v469.334c0.002 58.796-47.87 106.668-106.664 106.668zM981.334 213.334c0-35.286-28.714-64-64-64h-810.668c-35.286 0-64 28.714-64 64v469.332c0 35.286 28.714 64 64 64h810.666c35.286 0 64-28.714 64-64v-469.332zM1002.666 661.334h-981.332c-11.776 0-21.334-9.558-21.334-21.334v-128c0-11.776 9.558-21.334 21.334-21.334h981.334c11.776 0 21.334 9.558 21.334 21.334v128c-0.002 11.776-9.56 21.334-21.336 21.334zM981.334 533.334h-938.668v85.334h938.666v-85.334zM405.334 362.666h-256c-11.776 0-21.334-9.558-21.334-21.334s9.558-21.332 21.334-21.332h256c11.776 0 21.334 9.558 21.334 21.334s-9.558 21.332-21.334 21.332zM405.334 277.334h-256c-11.776 0-21.334-9.558-21.334-21.334s9.558-21.334 21.334-21.334h256c11.776 0 21.334 9.558 21.334 21.334-0.002 11.776-9.558 21.334-21.334 21.334zM832 405.334h-42.666c-35.286 0-64-28.714-64-64v-42.666c0-35.286 28.714-64 64-64h42.666c35.286 0 64 28.714 64 64v42.666c0 35.284-28.714 64-64 64zM853.334 298.666c0-11.776-9.558-21.334-21.334-21.334h-42.666c-11.776 0-21.334 9.558-21.334 21.334v42.666c0 11.776 9.558 21.334 21.334 21.334h42.666c11.776 0 21.334-9.558 21.334-21.334v-42.666z" />
<glyph unicode="&#xe90c;" glyph-name="dish" d="M725.129 614.878l-10.957 36.062c-13.918 40.964-58.409 62.889-99.373 48.971-23.044-7.829-41.141-25.926-48.971-48.971l-10.957-36.062c-9.22-30.413-11.155-62.569-5.649-93.867 5.022-26.351 21.751-48.99 45.466-61.525l-12.271-274.313c-1.643-15.311 3.324-30.596 13.653-42.018 22.214-24.299 59.923-25.988 84.222-3.774 1.314 1.201 2.573 2.46 3.774 3.774 10.099 11.098 15.057 25.935 13.653 40.875l-12.339 275.49c23.682 12.542 40.384 35.166 45.397 61.491 5.506 31.298 3.571 63.454-5.649 93.867zM697.156 526.95c-3.695-18.931-17.186-34.464-35.413-40.772-6.918-2.601-11.375-9.359-11.042-16.742l12.971-288.102c0.597-5.651-1.267-11.285-5.12-15.462-10.276-10.174-26.827-10.174-37.103 0-4.045 4.514-5.882 10.59-5.018 16.589l12.868 286.976c0.333 7.383-4.124 14.142-11.042 16.742-18.227 6.308-31.718 21.841-35.413 40.772-4.565 25.984-2.957 52.678 4.693 77.926l10.957 36.079c8.478 22.923 33.933 34.633 56.858 26.155 12.119-4.482 21.673-14.037 26.155-26.155l10.957-36.079c7.642-25.25 9.25-51.942 4.693-77.926zM460.8 704c-9.425 0-17.067-7.642-17.067-17.067v-146.534l-46.199-46.199c-3.418-3.405-5.235-8.1-5.001-12.919l14.933-298.667c0.356-6.441-1.982-12.74-6.451-17.391-9.342-9.425-24.557-9.493-33.984-0.149-0.051 0.049-0.1 0.1-0.149 0.149-4.471 4.651-6.807 10.95-6.451 17.391l15.036 298.667c0.239 4.817-1.572 9.51-4.983 12.919l-46.217 46.199v146.534c0 9.425-7.642 17.067-17.067 17.067s-17.067-7.642-17.067-17.067v-153.6c0-4.527 1.801-8.866 5.001-12.066l45.841-45.858-14.558-291.14c-1.549-31.802 22.976-58.839 54.778-60.388s58.839 22.976 60.388 54.778c0.092 1.869 0.092 3.74 0 5.609l-14.558 291.14 45.841 45.858c3.2 3.2 5.001 7.539 5.001 12.066v153.6c0 9.427-7.642 17.069-17.067 17.069zM358.4 704c-9.425 0-17.067-7.642-17.067-17.067v-136.533c0-9.425 7.642-17.067 17.067-17.067s17.067 7.642 17.067 17.067v136.533c0 9.425-7.642 17.067-17.067 17.067zM409.6 704c-9.425 0-17.067-7.642-17.067-17.067v-136.533c0-9.425 7.642-17.067 17.067-17.067s17.067 7.642 17.067 17.067v136.533c0 9.425-7.642 17.067-17.067 17.067zM512 960c-282.769 0-512-229.231-512-512s229.231-512 512-512 512 229.231 512 512c-0.32 282.637-229.363 511.68-512 512zM512-29.867c-263.919 0-477.867 213.948-477.867 477.867s213.948 477.867 477.867 477.867 477.867-213.948 477.867-477.867c-0.301-263.793-214.074-477.566-477.867-477.867zM567.401 127.633c-0.915 9.38-9.263 16.243-18.645 15.328-0.22-0.021-0.439-0.047-0.659-0.077l0.068 0.017c-24.028-2.79-48.301-2.79-72.329 0-9.365 1.099-17.845-5.602-18.944-14.967s5.602-17.845 14.967-18.944c26.647-3.113 53.566-3.113 80.213 0 9.38 0.913 16.243 9.261 15.328 18.643zM773.12 667.921c-6.057 7.221-16.821 8.166-24.043 2.108-0.023-0.019-0.047-0.041-0.073-0.060-7.204-6.076-8.122-16.841-2.048-24.047 102.901-122.155 95.029-302.782-18.108-415.522-6.677-6.654-6.697-17.463-0.043-24.141s17.463-6.697 24.141-0.043c125.732 125.254 134.5 325.963 20.173 461.705zM397.636 734.413c-0.011 0-0.021 0.002-0.032 0.002-0.017 0-0.034-0.002-0.053-0.002h0.085zM592.503 779.793c-66.699 15.985-136.651 11.689-200.892-12.339-8.823-3.317-13.284-13.161-9.967-21.982 2.5-6.65 8.858-11.051 15.959-11.057 2.042 0.011 4.064 0.384 5.971 1.107 57.852 21.634 120.845 25.498 180.907 11.093 9.163-2.214 18.385 3.415 20.599 12.578s-3.415 18.385-12.578 20.599zM294.383 231.253c-57.534 57.436-89.779 135.45-89.583 216.747-0.169 64.951 20.405 128.26 58.726 180.702 5.664 7.535 4.147 18.234-3.388 23.898s-18.234 4.147-23.898-3.388c-0.1-0.134-0.198-0.269-0.294-0.405-98.673-135.654-84.154-322.899 34.253-441.719 6.673-6.677 17.498-6.682 24.175-0.009s6.682 17.498 0.009 24.175z" />
<glyph unicode="&#xe90d;" glyph-name="edit1" d="M911.999 480c-26.527 0-48.001-21.504-48.001-48.001v-399.999h-768v768h399.999c26.527 0 48.001 21.504 48.001 48.001s-21.471 47.999-47.997 47.999h-432.001c-35.328 0-64-28.64-64-64v-832c0-35.36 28.672-64 64-64h832c35.328 0 64 28.64 64 64v432.001c0 26.495-21.472 47.999-48.001 47.999zM1012.831 811.169l-137.696 137.696c-7.486 7.488-17.311 11.135-27.136 11.135s-19.648-3.648-27.136-11.169l-532.865-532.831v-192h192l532.831 532.831c7.519 7.521 11.169 17.344 11.169 27.168 0.002 9.857-3.648 19.648-11.167 27.169zM448 320h-64v64l463.999 463.999 64-64-463.999-463.999z" />
<glyph unicode="&#xe90e;" glyph-name="email" d="M934 838h-844c-49.564 0-90-40.392-90-90v-600c0-49.44 40.256-90 90-90h844c49.44 0 90 40.256 90 90v600c0 49.44-40.256 90-90 90zM921.572 778l-407.664-407.666-411.19 407.666h818.854zM60 160.424v575.438l288.958-286.48-288.958-288.958zM102.426 118l289.14 289.14 101.314-100.444c11.728-11.628 30.654-11.59 42.334 0.092l98.786 98.786 287.574-287.574h-819.148zM964 160.426l-287.574 287.574 287.574 287.576v-575.15z" />
<glyph unicode="&#xe90f;" glyph-name="external-link1" d="M896-64v704l-64-64v-576h-768v768h576l64 64h-704v-896zM1024 960h-320l115.2-115.2-435.2-435.2 89.6-89.6 435.2 435.2 115.2-115.2z" />
<glyph unicode="&#xe910;" glyph-name="facebook-logo" d="M767.957 959.782l-132.788 0.213c-149.183 0-245.592-98.912-245.592-252.005v-116.191h-133.513c-11.537 0-20.88-9.353-20.88-20.89v-168.348c0-11.537 9.353-20.88 20.88-20.88h133.513v-424.795c0-11.537 9.343-20.88 20.88-20.88h174.196c11.537 0 20.88 9.353 20.88 20.88v424.795h156.108c11.537 0 20.88 9.343 20.88 20.88l0.064 168.348c0 5.54-2.205 10.845-6.115 14.765s-9.236 6.125-14.776 6.125h-156.161v98.497c0 47.342 11.281 71.374 72.951 71.374l89.452 0.032c11.526 0 20.869 9.353 20.869 20.88v156.321c0 11.516-9.332 20.858-20.848 20.88z" />
<glyph unicode="&#xe911;" glyph-name="foreign" d="M977.454 960h-372.364c-25.706 0-46.546-20.84-46.546-46.546s20.84-46.546 46.546-46.546h259.994l-479.086-479.088c-18.178-18.178-18.178-47.646 0-65.824 9.086-9.088 20.998-13.632 32.91-13.632s23.826 4.542 32.914 13.634l479.088 479.086v-259.994c0-25.706 20.84-46.546 46.546-46.546s46.546 20.84 46.546 46.546v372.364c-0.002 25.706-20.842 46.546-46.548 46.546zM791.272 494.546c-25.706 0-46.546-20.84-46.546-46.546v-418.91h-651.636v651.638h418.91c25.706 0 46.546 20.84 46.546 46.546s-20.84 46.544-46.546 46.544h-465.454c-25.706 0-46.546-20.84-46.546-46.546v-744.728c0-25.704 20.84-46.544 46.546-46.544h744.728c25.706 0 46.546 20.84 46.546 46.546v465.454c-0.002 25.706-20.842 46.546-46.548 46.546z" />
<glyph unicode="&#xe912;" glyph-name="gift1" d="M1021.715 256.427c-7.103 25.886-28.808 45.149-55.356 49.131v389.115h33.907c9.363 0 16.954 7.591 16.954 16.954v169.537c0 9.371-7.591 16.954-16.954 16.954h-745.961c-9.363 0-16.954-7.583-16.954-16.954v-169.537c0-9.363 7.591-16.954 16.954-16.954h33.907v-339.073h-16.954c-42.078 0.099-83.295-11.962-118.676-34.735v85.596c0 9.371-7.591 16.954-16.954 16.954h-118.676c-9.363 0-16.954-7.583-16.954-16.954v-389.934c0-9.363 7.591-16.954 16.954-16.954h118.676c9.363 0 16.954 7.591 16.954 16.954v85.588c35.389-22.757 76.598-34.818 118.676-34.727h278.378c19.288 0.033 38.485 2.566 57.119 7.533l367.062 98.328c36.118 9.843 57.517 46.995 47.897 83.179zM271.259 864.209h712.054v-135.629h-712.054zM322.12 694.672h610.332v-392.029l-196.763-52.765c-8.104 19.321-24.636 33.833-44.843 39.371l-228.436 61.267c-12.864 3.386-26.109 5.099-39.412 5.083h-100.878zM118.676 33.48h-84.768v356.027h84.768zM965.018 206.005l-366.995-98.328c-15.786-4.214-32.045-6.358-48.386-6.382h-278.378c-40.364-0.091-79.661 13.005-111.896 37.301l-6.78 5.083v135.629l6.78 5.091c32.235 24.296 71.532 37.401 111.896 37.293h151.739c10.356 0.008 20.679-1.333 30.704-3.982l228.361-61.217c13.493-3.717 23.369-15.281 24.909-29.197 0.182-0.695 0.406-1.382 0.679-2.053-0.199-0.728-0.348-1.465-0.447-2.219 0.017-2.757-0.356-5.505-1.118-8.154-3.99-14.777-17.376-25.050-32.682-25.075-2.988-0.025-5.952 0.356-8.833 1.118l-144.106 38.642c-5.911 1.755-12.31 0.166-16.714-4.156-4.396-4.321-6.109-10.687-4.462-16.631 1.647-5.935 6.391-10.522 12.392-11.954l144.106-38.659c5.753-1.515 11.689-2.276 17.649-2.268 30.48 0.017 57.194 20.406 65.248 49.81 0.944 3.402 1.581 6.879 1.921 10.389l206.681 55.422c1.474 0.373 3.071 0.753 4.578 1.002 16.879 2.177 32.748-8.493 37.111-24.934 0.762-2.864 1.142-5.82 1.118-8.783 0.025-15.348-10.257-28.791-25.075-32.79zM542.517 626.858h169.537c9.363 0 16.954 7.591 16.954 16.954 0 9.371-7.591 16.954-16.954 16.954h-169.537c-9.363 0-16.954-7.583-16.954-16.954 0-9.363 7.591-16.954 16.954-16.954z" />
<glyph unicode="&#xe913;" glyph-name="gift2" d="M960 672.628h-202.496c14.528 9.92 27.008 19.776 35.712 28.608 51.584 51.904 51.584 136.384 0 188.288-50.112 50.432-137.536 50.496-187.712 0-27.712-27.84-101.376-141.184-91.2-216.896h-4.608c10.112 75.712-63.488 189.056-91.2 216.896-50.176 50.496-137.6 50.432-187.712 0-51.584-51.904-51.584-136.384-0.064-188.288 8.768-8.832 21.248-18.688 35.776-28.608h-202.496c-35.264 0-64-28.736-64-64v-160c0-17.664 14.336-32 32-32h32v-384c0-35.264 28.736-64 64-64h768c35.264 0 64 28.736 64 64v384h32c17.664 0 32 14.336 32 32v160c0 35.264-28.736 64-64 64zM276.16 844.404c12.992 13.056 30.208 20.224 48.512 20.224 18.24 0 35.456-7.168 48.448-20.224 43.136-43.392 86.016-154.24 71.104-169.664 0 0-2.688-2.112-11.84-2.112-44.224 0-128.64 45.952-156.224 73.728-26.816 27.008-26.816 71.040 0 98.048zM480 32.628h-352v384h352v-384zM480 480.628h-416v128h416v-128zM650.88 844.404c25.984 26.048 71.040 25.984 96.96 0 26.816-27.008 26.816-71.040 0-98.048-27.584-27.776-112-73.728-156.224-73.728-9.152 0-11.84 2.048-11.904 2.112-14.848 15.424 28.032 126.272 71.168 169.664zM896 32.628h-352v384h352v-384zM960 480.628h-416v128h416v-128z" />
<glyph unicode="&#xe914;" glyph-name="health" d="M462.452 596.645h99.097v66.065h66.065v99.097h-66.065v66.065h-99.097v-66.065h-66.065v-99.097h66.065zM429.419 695.742v33.032h66.065v66.065h33.032v-66.065h66.065v-33.032h-66.065v-66.065h-33.032v66.065zM891.871 200.258c-48.774 0-91.371-26.637-114.258-66.065h-34.387c-27.315 0-49.548-22.234-49.548-49.548h-644.129c-9.097 0-16.516 7.403-16.516 16.516v33.032c0 9.113 7.419 16.516 16.516 16.516h429.419c27.315 0 49.548 22.234 49.548 49.548v49.548c18.218 0 33.032 14.815 33.032 33.032v33.032h33.032c18.218 0 33.032 14.815 33.032 33.032v8.073l221.976 160.323c47.153 34.056 75.315 89.121 75.315 147.274v14.653c0 53.976-24.677 105.435-66.065 139.742v8.903c0 27.315-22.234 49.548-49.548 49.548h-33.774c-25.5 48.984-76.653 82.581-135.597 82.581h-5.403c-40.831 0-79.21-15.887-108.065-44.758l-14.452-14.468-14.452 14.468c-28.871 28.871-67.25 44.758-108.081 44.758h-5.403c-58.944 0-110.097-33.597-135.597-82.581h-33.758c-27.315 0-49.548-22.234-49.548-49.548v-8.903c-41.387-34.306-66.065-85.766-66.065-139.742v-14.653c0-58.169 28.161-113.234 75.315-147.274l221.976-160.323v-8.073c0-18.218 14.815-33.032 33.032-33.032h33.032v-33.032c0-18.218 14.815-33.032 33.032-33.032v-49.548c0-9.113-7.419-16.516-16.516-16.516h-429.419c-27.315 0-49.548-22.234-49.548-49.548v-33.032c0-27.315 22.234-49.548 49.548-49.548h644.129c0-27.315 22.234-49.548 49.548-49.548h34.387c22.887-39.427 65.468-66.065 114.258-66.065 72.855 0 132.129 59.274 132.129 132.129s-59.274 132.129-132.129 132.129zM809.29 844.387c9.097 0 16.516-7.419 16.516-16.516v-33.032c0-9.097-7.419-16.516-16.516-16.516h-19.403c1.798 9.427 2.887 19.056 2.887 28.839 0 12.847-1.766 25.282-4.774 37.226zM384.065 926.968h5.403c32.008 0 62.081-12.452 84.71-35.097l37.823-37.806 37.823 37.823c22.629 22.629 52.702 35.081 84.71 35.081h5.403c66.065 0 119.806-53.742 119.806-119.806 0-34.556-14.911-67.419-40.927-90.161l-206.815-180.984-206.815 180.968c-26.016 22.758-40.927 55.605-40.927 90.177 0 66.065 53.742 119.806 119.806 119.806zM198.194 827.871c0 9.097 7.419 16.516 16.516 16.516h21.29c-3.008-11.944-4.774-24.379-4.774-37.226 0-9.766 1.089-19.395 2.887-28.839h-19.403c-9.097 0-16.516 7.419-16.516 16.516zM399.395 395.548l-205.661 148.524c-38.565 27.863-61.605 72.903-61.605 120.5v14.653c0 35.976 13.395 70.589 36.597 97.395 7.29-18.315 25.105-31.331 45.984-31.331h29.661c8.919-20.137 22.097-38.331 39.048-53.169l228.581-200.008 228.581 200.008c16.952 14.823 30.129 33.032 39.048 53.169h29.661c20.879 0 38.694 13.016 45.984 31.331 23.202-26.806 36.597-61.419 36.597-97.395v-14.653c0-47.597-23.040-92.637-61.605-120.5l-205.661-148.524c-5.202 11.427-16.661 19.419-30.024 19.419h-165.161c-13.363 0-24.823-7.992-30.024-19.419zM429.419 348.903v33.032h165.161v-33.032h-66.065v-66.065h-33.032v66.065zM743.226 35.097c-9.097 0-16.516 7.403-16.516 16.516v33.032c0 9.113 7.419 16.516 16.516 16.516h20.863c-2.742-10.589-4.347-21.605-4.347-33.032s1.605-22.444 4.347-33.032zM891.871-30.968c-54.653 0-99.097 44.444-99.097 99.097s44.444 99.097 99.097 99.097 99.097-44.444 99.097-99.097-44.444-99.097-99.097-99.097zM891.871 134.194c-36.435 0-66.065-29.629-66.065-66.065s29.629-66.065 66.065-66.065 66.065 29.629 66.065 66.065-29.629 66.065-66.065 66.065zM891.871 35.097c-18.218 0-33.032 14.815-33.032 33.032s14.815 33.032 33.032 33.032 33.032-14.815 33.032-33.032-14.815-33.032-33.032-33.032z" />
<glyph unicode="&#xe915;" glyph-name="heart1" d="M941.29 814.55c-53.62 53.62-124.608 82.927-200.371 82.927s-146.968-29.524-200.588-83.144l-28.004-28.004-28.438 28.438c-53.62 53.62-125.042 83.361-200.805 83.361-75.546 0-146.751-29.524-200.154-82.927-53.62-53.62-83.144-124.825-82.927-200.588 0-75.763 29.741-146.751 83.361-200.371l407.689-407.689c5.644-5.644 13.242-8.683 20.623-8.683s14.979 2.822 20.623 8.466l408.557 407.038c53.62 53.62 83.144 124.825 83.144 200.588 0.217 75.763-29.090 146.968-82.71 200.588zM899.609 454.837l-387.934-386.414-387.066 387.066c-42.549 42.549-65.994 98.992-65.994 159.125s23.228 116.576 65.777 158.907c42.332 42.332 98.774 65.777 158.69 65.777 60.133 0 116.793-23.445 159.342-65.994l49.062-49.062c11.506-11.506 29.958-11.506 41.464 0l48.627 48.627c42.549 42.549 99.209 65.994 159.125 65.994s116.358-23.445 158.907-65.777c42.549-42.549 65.777-98.992 65.777-159.125 0.217-60.133-23.228-116.576-65.777-159.125z" />
<glyph unicode="&#xe916;" glyph-name="heartuser" d="M941.29 814.55c-53.62 53.62-124.608 82.927-200.371 82.927s-146.968-29.524-200.588-83.144l-28.004-28.004-28.438 28.438c-53.62 53.62-125.042 83.361-200.805 83.361-75.546 0-146.751-29.524-200.154-82.927-53.62-53.62-83.144-124.825-82.927-200.588 0-75.763 29.741-146.751 83.361-200.371l407.689-407.689c5.644-5.644 13.242-8.683 20.623-8.683s14.979 2.822 20.623 8.466l408.557 407.038c53.62 53.62 83.144 124.825 83.144 200.588 0.217 75.763-29.090 146.968-82.71 200.588zM899.609 454.837l-387.934-386.414-387.066 387.066c-42.549 42.549-65.994 98.992-65.994 159.125s23.228 116.576 65.777 158.907c42.332 42.332 98.774 65.777 158.69 65.777 60.133 0 116.793-23.445 159.342-65.994l49.062-49.062c11.506-11.506 29.958-11.506 41.464 0l48.627 48.627c42.549 42.549 99.209 65.994 159.125 65.994s116.358-23.445 158.907-65.777c42.549-42.549 65.777-98.992 65.777-159.125 0.217-60.133-23.228-116.576-65.777-159.125z" />
<glyph unicode="&#xe917;" glyph-name="heartwhite" d="M511.999-7.030c-14.578 0-28.633 5.281-39.586 14.875-41.367 36.172-81.25 70.164-116.437 100.148l-0.18 0.156c-103.164 87.914-192.25 163.836-254.234 238.625-69.289 83.609-101.562 162.882-101.562 249.484 0 84.14 28.852 161.765 81.234 218.586 53.008 57.492 125.742 89.156 204.828 89.156 59.109 0 113.242-18.687 160.89-55.539 24.047-18.602 45.844-41.367 65.047-67.922 19.211 26.555 41 49.32 65.055 67.922 47.648 36.851 101.781 55.539 160.89 55.539 79.078 0 151.82-31.664 204.828-89.156 52.383-56.82 81.226-134.445 81.226-218.586 0-86.601-32.266-165.875-101.554-249.476-61.984-74.797-151.062-150.711-254.21-238.617-35.25-30.031-75.195-64.078-116.656-100.336-10.945-9.578-25.008-14.859-39.578-14.859zM286.062 844.015c-62.133 0-119.211-24.797-160.734-69.828-42.141-45.711-65.351-108.898-65.351-177.929 0-72.836 27.070-137.976 87.765-211.211 58.664-70.789 145.922-145.148 246.953-231.25l0.187-0.156c35.32-30.102 75.359-64.226 117.031-100.664 41.922 36.508 82.023 70.687 117.414 100.836 101.023 86.101 188.273 160.445 246.937 231.234 60.687 73.234 87.758 138.375 87.758 211.211 0 69.031-23.211 132.218-65.351 177.929-41.516 45.031-98.601 69.828-160.726 69.828-45.516 0-87.305-14.469-124.203-43-32.883-25.437-55.789-57.594-69.219-80.094-6.906-11.57-19.062-18.477-32.523-18.477s-25.617 6.906-32.523 18.477c-13.422 22.5-36.328 54.656-69.219 80.094-36.898 28.531-78.687 43-124.195 43z" />
<glyph unicode="&#xe918;" glyph-name="honeymoon" d="M490.335 937.77c-14.332 14.334-33.388 22.23-53.66 22.23-15.466 0-30.23-4.598-42.724-13.144-12.496 8.548-27.258 13.144-42.724 13.144-20.27 0-39.328-7.896-53.66-22.228-14.336-14.332-22.23-33.388-22.23-53.662 0-20.27 7.894-39.33 22.23-53.664l85.448-85.442c3.020-3.020 6.98-4.53 10.938-4.53s7.918 1.51 10.94 4.532l85.442 85.444c29.58 29.592 29.578 77.736 0 107.32zM468.453 852.324l-74.498-74.502-74.508 74.502c-8.49 8.49-13.166 19.778-13.166 31.784s4.672 23.294 13.164 31.784c8.488 8.49 19.776 13.166 31.782 13.166s23.294-4.676 31.788-13.168c2.9-2.9 6.836-4.53 10.94-4.53s8.038 1.63 10.938 4.532c8.488 8.49 19.776 13.166 31.782 13.166s23.29-4.676 31.778-13.166c17.522-17.524 17.52-46.042 0-63.568zM633.259 769.818c-8.626 8.632-20.098 13.384-32.304 13.384-7.57 0-14.858-1.83-21.358-5.278-6.504 3.448-13.794 5.278-21.364 5.278-12.204 0-23.678-4.754-32.3-13.38-8.628-8.626-13.38-20.098-13.38-32.3s4.75-23.674 13.38-32.302l42.73-42.724c2.9-2.9 6.836-4.53 10.94-4.53 4.102 0 8.038 1.63 10.938 4.532l42.718 42.724c17.806 17.812 17.806 46.792 0 64.596zM611.373 727.094l-31.774-31.78-31.788 31.782c-2.784 2.784-4.316 6.486-4.316 10.424s1.532 7.64 4.318 10.426c2.782 2.782 6.482 4.316 10.418 4.316 3.94 0 7.644-1.536 10.43-4.322 2.902-2.9 6.836-4.53 10.938-4.53h0.006c4.104 0.002 8.038 1.634 10.938 4.536 2.78 2.782 6.476 4.314 10.41 4.314 3.936 0 7.636-1.534 10.42-4.32 5.748-5.746 5.744-15.096 0-20.846zM883.938 710.822c-3.836 0-94.474-0.548-142.204-48.28l-95.914-95.914-458.267 114.552c-0.11 0.028-0.224 0.040-0.334 0.066-0.294 0.066-0.588 0.126-0.884 0.174-0.224 0.038-0.448 0.070-0.67 0.096-0.266 0.032-0.532 0.056-0.8 0.074-0.248 0.018-0.496 0.030-0.744 0.036-0.25 0.004-0.5 0.002-0.75-0.006s-0.5-0.018-0.75-0.036c-0.258-0.020-0.516-0.050-0.774-0.082-0.228-0.030-0.456-0.058-0.678-0.098-0.29-0.050-0.576-0.112-0.864-0.178-0.184-0.044-0.366-0.084-0.548-0.134-0.324-0.086-0.642-0.19-0.96-0.298-0.14-0.048-0.282-0.094-0.422-0.148-0.338-0.128-0.67-0.268-1.002-0.42-0.118-0.054-0.236-0.106-0.352-0.164-0.326-0.158-0.644-0.332-0.958-0.514-0.124-0.072-0.25-0.144-0.37-0.218-0.284-0.176-0.562-0.362-0.836-0.556-0.156-0.11-0.308-0.222-0.46-0.336-0.228-0.176-0.452-0.358-0.67-0.546-0.19-0.164-0.374-0.332-0.556-0.504-0.1-0.094-0.208-0.178-0.306-0.276l-43.752-43.748c-0.074-0.074-0.136-0.156-0.208-0.23-0.198-0.206-0.388-0.416-0.576-0.634-0.174-0.202-0.342-0.406-0.504-0.616-0.070-0.090-0.148-0.172-0.216-0.264-0.074-0.1-0.136-0.208-0.208-0.312-0.17-0.242-0.334-0.488-0.49-0.74-0.118-0.19-0.232-0.382-0.34-0.576-0.14-0.25-0.274-0.502-0.398-0.758-0.104-0.212-0.204-0.424-0.298-0.64-0.104-0.24-0.202-0.484-0.294-0.728-0.088-0.236-0.174-0.476-0.25-0.716-0.074-0.23-0.142-0.46-0.204-0.692-0.070-0.258-0.134-0.516-0.19-0.776-0.048-0.224-0.090-0.448-0.128-0.672-0.044-0.266-0.084-0.532-0.114-0.8-0.026-0.228-0.046-0.458-0.062-0.686-0.018-0.262-0.032-0.522-0.038-0.782-0.004-0.242-0.002-0.482 0.004-0.724 0.008-0.248 0.018-0.494 0.036-0.74 0.018-0.256 0.046-0.512 0.076-0.766 0.030-0.23 0.060-0.458 0.1-0.684 0.044-0.268 0.098-0.534 0.16-0.8 0.046-0.214 0.098-0.426 0.156-0.64 0.072-0.268 0.154-0.534 0.242-0.798 0.068-0.21 0.138-0.416 0.218-0.624 0.096-0.254 0.2-0.508 0.31-0.758 0.092-0.214 0.192-0.426 0.294-0.636 0.114-0.23 0.236-0.458 0.362-0.684 0.124-0.226 0.256-0.448 0.392-0.666 0.126-0.202 0.258-0.398 0.392-0.596 0.162-0.232 0.33-0.46 0.504-0.686 0.136-0.176 0.278-0.35 0.424-0.522 0.192-0.224 0.388-0.444 0.594-0.658 0.086-0.090 0.162-0.188 0.25-0.276 0.080-0.080 0.17-0.148 0.25-0.226 0.194-0.184 0.392-0.364 0.596-0.54 0.214-0.184 0.432-0.364 0.652-0.534 0.084-0.064 0.16-0.138 0.246-0.202l321.035-237.28-155.574-155.574-78.438 26.154c-0.154 0.052-0.308 0.082-0.462 0.128-0.288 0.086-0.578 0.174-0.872 0.242-0.252 0.060-0.504 0.104-0.758 0.152-0.234 0.044-0.464 0.088-0.698 0.12-0.294 0.040-0.586 0.066-0.878 0.090-0.202 0.016-0.4 0.034-0.602 0.042-0.308 0.012-0.614 0.010-0.922 0.004-0.194-0.004-0.384-0.006-0.578-0.016-0.304-0.018-0.606-0.048-0.908-0.084-0.2-0.024-0.398-0.046-0.596-0.076-0.294-0.046-0.584-0.104-0.874-0.168-0.204-0.044-0.404-0.086-0.604-0.136-0.294-0.076-0.58-0.166-0.866-0.258-0.192-0.062-0.382-0.12-0.572-0.19-0.306-0.112-0.608-0.24-0.906-0.372-0.162-0.070-0.32-0.136-0.48-0.212-0.34-0.164-0.668-0.344-0.998-0.532-0.090-0.052-0.186-0.092-0.276-0.148l-0.202-0.12c-0.026-0.016-0.052-0.030-0.076-0.046l-72.514-43.508c-0.038-0.022-0.074-0.044-0.11-0.066l-0.026-0.016c-0.040-0.024-0.072-0.052-0.112-0.076-0.394-0.242-0.782-0.498-1.156-0.776-0.12-0.088-0.23-0.188-0.346-0.28-0.28-0.22-0.558-0.44-0.822-0.68-0.18-0.162-0.342-0.336-0.514-0.504-0.184-0.184-0.372-0.362-0.548-0.556-0.23-0.254-0.44-0.52-0.65-0.786-0.1-0.128-0.21-0.248-0.306-0.38-0.278-0.372-0.532-0.758-0.774-1.152-0.024-0.040-0.052-0.074-0.076-0.114-0.002-0.004-0.004-0.008-0.006-0.012-0.53-0.884-0.968-1.812-1.31-2.776-0.148-0.414-0.268-0.83-0.376-1.252-0.016-0.060-0.038-0.116-0.052-0.176-0.096-0.386-0.168-0.774-0.234-1.162-0.018-0.104-0.044-0.206-0.058-0.312-0.050-0.328-0.074-0.658-0.102-0.988-0.014-0.174-0.038-0.348-0.046-0.522-0.012-0.25-0.006-0.498-0.004-0.748-0.002-0.26-0.010-0.518 0.004-0.778 0.008-0.166 0.030-0.33 0.044-0.496 0.028-0.338 0.054-0.674 0.102-1.012 0.016-0.092 0.038-0.184 0.054-0.276 0.066-0.4 0.14-0.802 0.24-1.198 0.004-0.020 0.012-0.038 0.016-0.056 0.184-0.718 0.432-1.426 0.722-2.126 0.086-0.208 0.162-0.42 0.256-0.624 0.026-0.052 0.058-0.104 0.082-0.156 0.202-0.416 0.416-0.826 0.652-1.224 0.006-0.008 0.008-0.018 0.014-0.026 0.018-0.030 0.040-0.054 0.058-0.082 0.3-0.496 0.636-0.972 0.996-1.436 0.106-0.136 0.216-0.27 0.326-0.402 0.294-0.354 0.604-0.694 0.934-1.024 0.12-0.122 0.238-0.25 0.362-0.368 0.424-0.398 0.868-0.778 1.344-1.13 0.152-0.112 0.314-0.208 0.47-0.314 0.27-0.186 0.532-0.378 0.818-0.548l128.866-77.324-15.164-15.164c-6.042-6.042-6.042-15.838 0-21.878 3.022-3.020 6.982-4.532 10.94-4.532s7.918 1.51 10.94 4.532l15.164 15.164 77.242-128.73c0.022-0.038 0.044-0.074 0.066-0.11l0.016-0.026c0.008-0.014 0.020-0.026 0.028-0.042 0.312-0.516 0.66-1.010 1.036-1.49 0.098-0.128 0.2-0.25 0.302-0.374 0.302-0.366 0.624-0.718 0.964-1.058 0.114-0.114 0.222-0.232 0.338-0.342 0.428-0.4 0.876-0.786 1.358-1.142 0.14-0.104 0.288-0.19 0.432-0.29 0.28-0.194 0.554-0.392 0.848-0.57 0.062-0.038 0.13-0.062 0.194-0.098 0.378-0.22 0.768-0.406 1.16-0.592 0.242-0.114 0.478-0.242 0.722-0.342 0.344-0.14 0.698-0.248 1.050-0.364 0.298-0.098 0.594-0.212 0.896-0.292 0.304-0.080 0.616-0.126 0.922-0.188 0.348-0.068 0.694-0.156 1.044-0.2 0.418-0.054 0.844-0.064 1.27-0.084 0.23-0.010 0.46-0.046 0.688-0.046 0.004 0 0.010 0.002 0.014 0.002s0.010-0.002 0.014-0.002c0.23 0 0.46 0.036 0.688 0.046 0.424 0.020 0.85 0.030 1.268 0.084 0.352 0.044 0.7 0.13 1.050 0.202 0.306 0.060 0.614 0.106 0.916 0.184 0.306 0.080 0.604 0.196 0.906 0.298 0.348 0.114 0.696 0.22 1.038 0.36 0.25 0.102 0.492 0.232 0.74 0.35 0.384 0.182 0.768 0.366 1.136 0.582 0.068 0.038 0.136 0.064 0.204 0.102 0.306 0.184 0.592 0.39 0.88 0.592 0.13 0.090 0.266 0.168 0.392 0.264 0.486 0.36 0.936 0.746 1.368 1.152 0.112 0.106 0.218 0.22 0.326 0.33 0.342 0.344 0.668 0.698 0.976 1.070 0.1 0.122 0.202 0.244 0.298 0.37 0.372 0.478 0.722 0.97 1.034 1.486 0.010 0.016 0.022 0.030 0.032 0.048l0.018 0.032c0.020 0.034 0.042 0.068 0.062 0.102l43.674 72.798c0.096 0.16 0.172 0.326 0.26 0.488 0.132 0.238 0.266 0.476 0.384 0.722 0.116 0.24 0.22 0.484 0.322 0.73 0.090 0.216 0.186 0.43 0.266 0.648 0.098 0.266 0.184 0.534 0.266 0.804 0.066 0.21 0.132 0.418 0.19 0.632 0.070 0.27 0.128 0.542 0.186 0.814 0.046 0.222 0.092 0.446 0.128 0.672 0.040 0.258 0.070 0.516 0.098 0.776 0.026 0.246 0.052 0.494 0.068 0.742 0.014 0.24 0.018 0.48 0.020 0.72 0.004 0.256 0.006 0.524-0.004 0.792-0.010 0.228-0.030 0.456-0.048 0.682-0.022 0.272-0.046 0.546-0.082 0.82-0.034 0.238-0.080 0.474-0.122 0.71-0.048 0.256-0.092 0.51-0.154 0.766-0.064 0.266-0.142 0.528-0.222 0.792-0.050 0.178-0.088 0.356-0.148 0.532l-26.156 78.44 445.349 445.349c0.022 0.024 0.048 0.044 0.072 0.066 47.73 47.73 48.278 138.366 48.278 142.202 0.002 8.544-6.924 15.47-15.468 15.47zM163.69 624.185l24.854 24.852 431.759-107.922-146.29-146.29-310.323 229.36zM829.298 575.083c-0.016-0.018-0.036-0.032-0.054-0.050l-452.179-452.181c-0.050-0.052-0.092-0.108-0.144-0.16-0.212-0.218-0.41-0.444-0.61-0.674-0.148-0.17-0.296-0.338-0.436-0.512-0.154-0.194-0.294-0.396-0.438-0.598-0.162-0.224-0.322-0.446-0.47-0.676-0.102-0.158-0.192-0.324-0.288-0.486-0.164-0.278-0.324-0.554-0.47-0.838-0.070-0.14-0.13-0.286-0.2-0.43-0.144-0.308-0.286-0.616-0.41-0.93-0.062-0.16-0.112-0.324-0.17-0.486-0.104-0.3-0.214-0.6-0.3-0.904-0.060-0.216-0.106-0.436-0.16-0.654-0.060-0.254-0.128-0.508-0.176-0.766-0.050-0.276-0.082-0.556-0.118-0.838-0.028-0.206-0.060-0.408-0.080-0.616-0.026-0.308-0.034-0.616-0.044-0.926-0.004-0.188-0.016-0.374-0.016-0.56 0.002-0.296 0.024-0.59 0.042-0.886 0.014-0.212 0.022-0.424 0.046-0.636 0.026-0.252 0.068-0.506 0.108-0.758 0.040-0.262 0.080-0.522 0.136-0.782 0.042-0.206 0.096-0.41 0.148-0.614 0.076-0.306 0.158-0.61 0.254-0.912 0.020-0.064 0.032-0.13 0.054-0.196l26.928-80.762-26.828-44.718-68.038 113.39 64.39 64.39c6.048 6.046 6.048 15.842 0.006 21.884-6.044 6.042-15.838 6.042-21.88 0l-64.388-64.388-113.39 68.038 44.718 26.83 80.762-26.93c0.050-0.018 0.102-0.020 0.154-0.038 0.688-0.222 1.388-0.394 2.094-0.516 0.174-0.030 0.344-0.050 0.516-0.074 0.638-0.088 1.278-0.146 1.92-0.154 0.070-0.002 0.14-0.018 0.212-0.018 0.078 0 0.156 0.018 0.234 0.018 0.612 0.010 1.222 0.062 1.832 0.144 0.192 0.026 0.382 0.050 0.572 0.082 0.658 0.114 1.31 0.266 1.952 0.466 0.13 0.042 0.256 0.090 0.386 0.136 0.584 0.198 1.156 0.432 1.718 0.702 0.104 0.050 0.214 0.094 0.318 0.148 0.606 0.308 1.192 0.662 1.76 1.056 0.148 0.102 0.292 0.214 0.438 0.322 0.444 0.33 0.87 0.684 1.284 1.068 0.126 0.118 0.262 0.226 0.384 0.348 0.018 0.018 0.038 0.032 0.056 0.050l452.179 452.179c27.968 27.97 78.116 35.992 103.952 38.292-2.268-25.796-10.244-75.802-38.266-103.876zM870.16-3.688c-0.016 0.252-0.040 0.504-0.068 0.756-0.028 0.234-0.062 0.466-0.102 0.7-0.048 0.294-0.106 0.584-0.172 0.874-0.026 0.112-0.038 0.224-0.066 0.338l-99.174 396.747c-2.072 8.29-10.476 13.328-18.76 11.256-8.29-2.072-13.33-10.47-11.258-18.76l97.048-388.249-24.852-24.852-200.082 270.709c-5.078 6.872-14.766 8.322-21.636 3.246-6.872-5.078-8.324-14.766-3.246-21.636l210.764-285.157c0.052-0.072 0.116-0.134 0.172-0.206 0.24-0.312 0.496-0.614 0.764-0.912 0.142-0.158 0.278-0.318 0.424-0.47 0.050-0.052 0.092-0.106 0.142-0.156 0.222-0.222 0.458-0.418 0.692-0.624 0.148-0.132 0.29-0.276 0.444-0.402 0.432-0.354 0.878-0.682 1.336-0.982 0.126-0.082 0.26-0.152 0.388-0.23 0.354-0.218 0.714-0.428 1.084-0.616 0.168-0.084 0.338-0.158 0.508-0.236 0.344-0.16 0.692-0.31 1.044-0.442 0.18-0.068 0.36-0.128 0.542-0.19 0.356-0.118 0.716-0.222 1.076-0.314 0.182-0.046 0.362-0.094 0.546-0.134 0.382-0.082 0.768-0.146 1.154-0.2 0.164-0.024 0.326-0.054 0.49-0.070 0.534-0.058 1.070-0.090 1.606-0.092 0.016 0 0.030-0.002 0.046-0.002 0.018 0 0.036 0.004 0.052 0.004 0.688 0.002 1.374 0.066 2.056 0.16 0.164 0.022 0.324 0.042 0.488 0.070 0.678 0.114 1.352 0.272 2.014 0.48 0.128 0.040 0.256 0.090 0.382 0.134 0.648 0.222 1.286 0.482 1.906 0.79 0.058 0.030 0.114 0.052 0.174 0.080 0.664 0.342 1.304 0.748 1.924 1.194 0.060 0.044 0.126 0.072 0.188 0.116 0.088 0.066 0.166 0.14 0.252 0.206 0.218 0.168 0.432 0.346 0.642 0.528 0.206 0.176 0.406 0.356 0.6 0.542 0.082 0.078 0.17 0.146 0.25 0.226l43.748 43.748c0.086 0.088 0.162 0.184 0.248 0.272 0.194 0.204 0.38 0.41 0.562 0.624 0.162 0.198 0.322 0.394 0.476 0.594 0.142 0.184 0.278 0.37 0.41 0.56 0.17 0.238 0.328 0.476 0.482 0.72 0.104 0.17 0.204 0.34 0.302 0.512 0.154 0.268 0.3 0.536 0.434 0.81 0.084 0.172 0.164 0.346 0.242 0.522 0.122 0.274 0.244 0.55 0.348 0.83 0.076 0.198 0.142 0.4 0.21 0.6 0.088 0.26 0.172 0.52 0.244 0.784 0.066 0.238 0.12 0.478 0.176 0.718 0.052 0.234 0.104 0.466 0.144 0.702 0.048 0.272 0.084 0.542 0.118 0.816 0.026 0.216 0.050 0.432 0.068 0.648 0.022 0.282 0.034 0.566 0.040 0.85 0.006 0.222 0.010 0.442 0.006 0.664-0.006 0.266-0.020 0.534-0.040 0.802z" />
<glyph unicode="&#xe919;" glyph-name="instruction" d="M660.645-30.968v118.105c0 6.992 1.435 13.758 4.274 20.121l54.669 123.008c4.71 10.621 7.121 21.919 7.121 33.565v35.524h214.71v578.065h-115.613v82.581h-181.677c-57.46 0-107.387-32.766-132.129-80.581-24.742 47.815-74.669 80.581-132.129 80.581h-181.677v-82.581h-115.613v-578.065h214.71v-32.435c0-14.008 3.597-27.863 10.387-40.105l65.968-118.718c4.065-7.315 6.226-15.637 6.226-24.048v-115.016h-379.871v-33.032h1024v33.032zM908.387 844.387v-512h-346.839v-16.516c0-27.315-22.234-49.548-49.548-49.548-2.065 0-4.065 0.508-6.113 0.774-8.734 36.685-26.919 70.427-53.476 98.323h373.395v478.968zM231.226 926.968h148.645c63.734 0 115.613-51.863 115.613-115.613v-132.129h33.032v132.129c0 63.75 51.879 115.613 115.613 115.613h148.645v-528.516h-264.258v247.742h-33.032v-247.742h-66.065v82.581c0 54.653-44.444 99.097-99.097 99.097-18.218 0-33.032-14.815-33.032-33.032v-148.645h-66.065zM115.613 332.387v512h82.581v-478.968h99.097v-33.032zM336.548 242.855c-4.065 7.331-6.226 15.653-6.226 24.065v280.177c36.435 0 66.065-29.629 66.065-66.065v-105.935l29.032-29.032c34.54-34.54 53.548-80.452 53.548-129.29h33.032c0 5.565-0.395 11.065-0.806 16.565 0.274 0 0.54-0.048 0.806-0.048 39.887 0 73.25 28.427 80.911 66.065h100.766v-35.524c0-6.992-1.435-13.758-4.274-20.121l-54.669-123.008c-2.79-6.274-4.508-12.855-5.669-19.54h-218.113c-1.702 8.008-4.444 15.79-8.435 22.992zM412.903 2.065h148.645v33.032h-148.645v33.032h214.71v-33.032h-33.032v-33.032h33.032v-33.032h-214.71zM644.129 530.581h33.032v-33.032h-33.032zM710.194 530.581h33.032v-33.032h-33.032zM578.065 530.581h33.032v-33.032h-33.032zM561.548 464.516h198.194v-33.032h-198.194zM561.548 596.645h198.194v-33.032h-198.194zM561.548 712.258h198.194v-33.032h-198.194zM561.548 778.323h198.194v-33.032h-198.194zM561.548 844.387h198.194v-33.032h-198.194zM346.839 778.323h33.032v-33.032h-33.032zM412.903 778.323h33.032v-33.032h-33.032zM280.774 778.323h33.032v-33.032h-33.032zM264.258 844.387h198.194v-33.032h-198.194zM264.258 712.258h198.194v-33.032h-198.194zM264.258 646.194h198.194v-33.032h-198.194z" />
<glyph unicode="&#xe91a;" glyph-name="keyboard-right-arrow-button" d="M315.733 960l-119.467-119.467 392.533-392.533-392.533-392.533 119.467-119.467 512 512z" />
<glyph unicode="&#xe91b;" glyph-name="knowledge" d="M625.277 341.175c92.534 37.581 152.506 128.115 151.019 227.978 0 137.252-118.579 248.913-264.332 248.913s-264.332-111.66-264.332-248.913c-1.487-99.862 58.483-190.396 151.019-227.978l2.049-1.11 13.994-22.962c-24.984-14.461-33.513-46.437-19.054-71.418 1.901-3.284 4.154-6.353 6.721-9.15-19.591-21.477-18.065-54.767 3.41-74.361 9.756-8.899 22.501-13.807 35.705-13.75h140.977c29.070-0.128 52.739 23.336 52.866 52.406 0.057 13.206-4.85 25.951-13.75 35.705 19.514 21.272 18.087 54.336-3.185 73.848-2.798 2.566-5.864 4.82-9.15 6.721l13.994 22.962 2.049 1.11zM582.451 183.668h-140.977c-9.732 0-17.622 7.89-17.622 17.622s7.89 17.622 17.622 17.622h140.977c9.732 0 17.622-7.89 17.622-17.622s-7.89-17.622-17.622-17.622zM582.451 254.157h-140.977c-9.732 0-17.622 7.89-17.622 17.622s7.89 17.622 17.622 17.622h140.977c9.732 0 17.622-7.89 17.622-17.622s-7.89-17.622-17.622-17.622zM609.281 372.597l-7.047-3.828c-2.727-1.487-5.016-3.665-6.635-6.315l-23.043-37.808h-7.727v133.681l82.947 82.947-24.918 24.92-88.111-88.111c-3.304-3.304-5.161-7.785-5.163-12.459v-140.977h-35.244v140.977c-0.002 4.674-1.859 9.155-5.163 12.459l-88.111 88.111-24.918-24.918 82.947-82.947v-133.681h-7.727l-23.043 37.808c-1.619 2.65-3.908 4.828-6.635 6.315l-7.047 3.828c-0.566 0.302-1.145 0.575-1.738 0.817-79.672 32.052-131.366 109.87-130.032 195.736 0 117.813 102.763 213.668 229.088 213.668s229.088-95.856 229.088-213.668c1.335-85.866-50.362-163.683-130.032-195.736-0.593-0.245-1.174-0.518-1.738-0.819zM134.011 784.677l15.761 31.522 105.726-52.863-15.761-31.522-105.726 52.863zM764.224 772.026l112.133 37.401 11.151-33.433-112.133-37.401-11.151 33.433zM71.409 588.977h105.733v-35.244h-105.733v35.244zM846.783 588.977h105.733v-35.244h-105.733v35.244zM134.013 322.807l105.726 52.863 15.761-31.522-105.726-52.863-15.761 31.522zM768.404 344.084l15.761 31.522 105.726-52.863-15.761-31.522-105.726 52.863zM494.34 941.42h35.244v-88.111h-35.244v88.111zM1023.004 113.18v35.244c-229.905 0-474.214-55.576-475.789-158.599h-70.506c-1.575 103.023-245.884 158.599-475.789 158.599v-35.244c258.162 0 438.432-64.792 440.459-123.355h-440.459v-35.244h1022.084v35.244h-440.459c2.027 58.563 182.297 123.355 440.459 123.355zM-0.008 25.072l1.854 35.195 334.88-17.639-1.854-35.195-334.88 17.639zM687.217 42.626l334.88 17.673 1.857-35.195-334.88-17.673-1.857 35.195z" />
<glyph unicode="&#xe91c;" glyph-name="left-arrow" d="M334.018 797.137c14.436 14.436 37.164 14.436 51.6 0 13.949-13.949 13.949-37.164 0-51.080l-261.641-261.641h863.38c20.126 0 36.643-15.997 36.643-36.123s-16.517-36.643-36.643-36.643h-863.38l261.641-261.153c13.949-14.436 13.949-37.684 0-51.6-14.436-14.436-37.164-14.436-51.6 0l-323.581 323.581c-13.949 13.949-13.949 37.164 0 51.080l323.581 323.581z" />
<glyph unicode="&#xe91d;" glyph-name="left-arrow-key" d="M827.733 55.467l-392.533 392.533 392.533 392.533-119.467 119.467-512-512 512-512z" />
<glyph unicode="&#xe91e;" glyph-name="linkedin-logo" d="M1024 337.332v-378.579h-219.476v353.224c0 88.733-31.745 149.29-111.188 149.29-60.645 0-96.735-40.811-112.612-80.288-5.79-14.113-7.28-33.757-7.28-53.512v-368.714h-219.55c0 0 2.957 598.246 0 660.229h219.529v-93.585c-0.445-0.7-1.024-1.455-1.443-2.133h1.443v2.133c29.167 44.922 81.255 109.095 197.845 109.095 144.447 0.002 252.733-94.363 252.733-297.16zM124.235 937.245c-75.108 0-124.235-49.265-124.235-114.050 0-63.373 47.705-114.133 121.321-114.133h1.467c76.562 0 124.177 50.75 124.177 114.133-1.443 64.785-47.615 114.050-122.73 114.050zM13.039-41.247h219.467v660.229h-219.467v-660.229z" />
<glyph unicode="&#xe91f;" glyph-name="lock1" d="M461.584 251.374l-13.458-121.020c-0.666-6.020 1.27-12.062 5.312-16.584 4.042-4.52 9.834-7.104 15.896-7.104h85.334c6.062 0 11.854 2.584 15.896 7.104s5.98 10.562 5.312 16.584l-13.458 121.020c21.854 15.896 34.916 41.042 34.916 68.626 0 47.062-38.27 85.334-85.334 85.334s-85.334-38.272-85.334-85.334c0-27.584 13.064-52.73 34.918-68.626zM512 362.666c23.52 0 42.666-19.146 42.666-42.666 0-16.354-9.292-31-24.25-38.25-8.146-3.958-12.916-12.584-11.916-21.562l12.334-110.854h-37.666l12.334 110.854c1 8.98-3.77 17.604-11.916 21.562-14.958 7.25-24.25 21.896-24.25 38.25-0.002 23.52 19.144 42.666 42.664 42.666zM874.666 576h-64v85.334c0 164.686-133.978 298.666-298.666 298.666s-298.666-133.98-298.666-298.666v-85.334h-64c-11.792 0-21.334-9.542-21.334-21.334v-533.334c0-47.062 38.27-85.332 85.334-85.332h597.334c47.062 0 85.332 38.27 85.332 85.334v533.332c0 11.792-9.542 21.334-21.334 21.334zM256 661.334c0 141.166 114.834 256 256 256s256-114.834 256-256v-85.334h-42.666v85.334c0 117.626-95.708 213.334-213.334 213.334s-213.334-95.71-213.334-213.334v-85.334h-42.666v85.334zM682.666 661.334v-85.334h-341.332v85.334c0 94.104 76.562 170.666 170.666 170.666s170.666-76.562 170.666-170.666zM853.334 21.334c0-23.52-19.146-42.666-42.666-42.666h-597.334c-23.52 0-42.666 19.146-42.666 42.666v512h682.666v-512z" />
<glyph unicode="&#xe920;" glyph-name="logout" d="M158.915 401.455h539.26c25.706 0 46.545 20.84 46.545 46.545s-20.84 46.545-46.545 46.545h-539.26l60.18 60.177c18.178 18.174 18.178 47.647 0 65.825-18.171 18.178-47.644 18.178-65.825 0l-139.627-139.627c-1.080-1.077-2.098-2.203-3.066-3.382-0.236-0.289-0.438-0.599-0.667-0.894-0.711-0.903-1.409-1.809-2.048-2.765-0.186-0.279-0.338-0.574-0.521-0.856-0.639-0.999-1.266-2.008-1.831-3.060-0.109-0.208-0.199-0.428-0.307-0.636-0.586-1.139-1.151-2.293-1.645-3.485-0.062-0.146-0.106-0.301-0.164-0.45-0.506-1.254-0.974-2.523-1.372-3.829-0.053-0.164-0.081-0.335-0.127-0.503-0.375-1.282-0.72-2.576-0.984-3.901-0.078-0.394-0.112-0.801-0.183-1.198-0.192-1.098-0.385-2.197-0.493-3.317-0.158-1.536-0.236-3.088-0.236-4.645s0.078-3.109 0.236-4.648c0.109-1.136 0.307-2.243 0.496-3.351 0.068-0.385 0.102-0.779 0.18-1.161 0.267-1.337 0.608-2.644 0.987-3.938 0.047-0.152 0.074-0.313 0.121-0.465 0.4-1.313 0.869-2.594 1.381-3.86 0.056-0.137 0.096-0.282 0.155-0.419 0.496-1.201 1.064-2.361 1.657-3.506 0.102-0.202 0.189-0.413 0.295-0.614 0.571-1.058 1.201-2.076 1.849-3.084 0.174-0.273 0.323-0.562 0.503-0.829 0.642-0.959 1.347-1.871 2.054-2.777 0.227-0.292 0.428-0.599 0.661-0.884 0.971-1.176 1.989-2.306 3.066-3.382l139.627-139.627c9.089-9.092 21.001-13.635 32.914-13.635s23.825 4.543 32.911 13.635c18.178 18.178 18.178 47.647 0 65.825l-60.177 60.177zM643.255 828.745c-127.050 0-245.257-63.029-316.208-168.597-14.336-21.333-8.664-50.254 12.67-64.593 21.336-14.336 50.254-8.67 64.596 12.67 53.623 79.794 142.947 127.432 238.943 127.432 158.611-0.003 287.654-129.043 287.654-287.657s-129.043-287.654-287.654-287.654c-95.713 0-184.891 47.424-238.555 126.855-14.395 21.302-43.321 26.9-64.627 12.511-21.299-14.392-26.903-43.325-12.511-64.624 71-105.093 189.015-167.834 315.693-167.834 209.942 0 380.745 170.8 380.745 380.745s-170.803 380.745-380.745 380.745z" />
<glyph unicode="&#xe921;" glyph-name="museum" d="M29.541 677.223c-0.372-2.023-0.582-4.073-0.65-6.123v-42.112c0.054-17.355 10.833-32.87 27.092-38.966v-61.964c0.074-20.745 16.388-37.796 37.105-38.777v-357.976c-20.718-0.988-37.031-18.039-37.105-38.777v-61.782c-16.293-6.259-27.065-21.888-27.092-39.332v-41.192c0-7.68 6.238-13.911 13.918-13.911h938.409c7.68 0 13.911 6.232 13.911 13.911v41.192c-0.027 17.45-10.799 33.080-27.085 39.332v62.147c-0.074 20.745-16.394 37.796-37.105 38.777v357.611c20.711 0.981 37.031 18.032 37.105 38.777v61.964c16.252 6.096 27.031 21.611 27.085 38.966v41.835c-0.061 2.050-0.277 4.1-0.65 6.123 6.996-3.099 15.176 0.054 18.275 7.050 3.099 6.989-0.054 15.17-7.044 18.275l-487.297 256.118c-4.066 2.145-8.925 2.145-12.991 0l-487.29-255.841c-6.8-3.593-9.405-12.003-5.826-18.803 3.275-6.211 10.663-9.012 17.233-6.523zM83.812 565.906v21.428h160.479v-21.246zM441.138 489.185v-357.881c-20.718-0.988-37.031-18.039-37.105-38.777v-59.183h-132.102v59.183c-0.074 20.738-16.388 37.789-37.105 38.777v357.976c20.718 0.981 37.031 18.032 37.105 38.777v59.278h131.913v-59.19c0.034-20.779 16.361-37.87 37.112-38.865zM431.862 565.906v21.428h160.486v-21.246zM789.195 489.185v-357.881c-20.718-0.988-37.038-18.039-37.112-38.777v-59.183h-132.095v59.183c-0.074 20.738-16.394 37.789-37.105 38.777v357.976c20.711 0.981 37.031 18.032 37.105 38.777v59.278h131.913v-59.19c0.027-20.779 16.354-37.87 37.105-38.865zM779.919 565.906v21.428h160.479v-21.246zM940.398 54.583v-21.239h-160.669v21.239zM592.348 54.583v-21.239h-160.669v21.239zM454.867 516.832h-12.057c-6.15 0-11.13 4.98-11.13 11.13v10.115h160.479v-10.115c0-6.15-4.98-11.13-11.13-11.13zM555.148 489.003v-357.516h-86.363v357.516c0 0 86.363 0 86.363 0zM454.867 103.658h126.161c6.15 0 11.13-4.98 11.13-11.13v-10.115h-160.479v10.115c0 6.15 4.98 11.13 11.13 11.13zM244.108 54.583v-21.239h-160.486v21.239zM83.622 527.685v10.393h160.486v-10.115c0-6.15-4.98-11.13-11.137-11.13h-138.496c-6.076 0.149-10.907 5.149-10.853 11.225zM207.003 488.725v-357.238h-86.275v357.516zM83.622 92.243c0 6.157 4.98 11.137 11.13 11.137h138.219c6.157 0 11.137-4.98 11.137-11.137v-10.109h-160.486zM967.3-9.147v-27.268h-910.762v27.268c0 7.943 6.435 14.385 14.378 14.385h882.006c7.828 0 14.229-6.272 14.378-14.101 0 0 0-0.284 0-0.284zM940.215 92.243v-10.109h-160.486v10.109c0 6.157 4.98 11.137 11.13 11.137h138.503c5.934-0.149 10.704-4.919 10.853-10.853zM816.835 131.209v357.793h86.363v-357.516zM940.215 527.685c0-6.15-4.98-11.13-11.13-11.13h-138.131c-6.15 0-11.13 4.98-11.13 11.13v10.393h160.479zM511.919 930.561l414.378-217.809h-828.757zM56.538 670.822c0 7.68 6.232 13.911 13.911 13.911h882.94c7.68 0 13.911-6.232 13.911-13.911v-42.119c0-7.68-6.232-13.911-13.911-13.911h-882.94c-7.68 0-13.911 6.232-13.911 13.911z" />
<glyph unicode="&#xe922;" glyph-name="notification" d="M935.638 96.298l-73.302 122.112c-33.792 56.362-51.67 120.874-51.67 186.624v106.966c0 164.65-134.016 298.666-298.666 298.666s-298.666-134.016-298.666-298.666v-106.966c0-65.75-17.878-130.262-51.67-186.624l-73.302-122.112c-3.968-6.57-4.054-14.806-0.298-21.462 3.798-6.698 10.922-10.838 18.602-10.838h810.666c7.68 0 14.806 4.138 18.602 10.838 3.756 6.658 3.672 14.892-0.296 21.462zM144.342 106.666l53.888 89.814c37.802 62.976 57.77 135.082 57.77 208.554v106.966c0 141.184 114.816 256 256 256s256-114.816 256-256v-106.966c0-73.472 19.968-145.578 57.728-208.554l53.93-89.814h-735.316zM512 960c-47.062 0-85.334-38.272-85.334-85.334v-85.334c0-11.774 9.558-21.332 21.334-21.332s21.334 9.558 21.334 21.334v85.332c0 23.552 19.114 42.666 42.666 42.666s42.666-19.114 42.666-42.666v-85.334c0-11.774 9.558-21.332 21.334-21.332s21.334 9.558 21.334 21.334v85.332c0 47.062-38.272 85.334-85.334 85.334zM604.33 96.128c-6.016 10.154-19.030 13.482-29.226 7.638-10.198-5.974-13.61-19.072-7.638-29.226 5.546-9.43 8.576-20.736 8.576-31.872 0-35.286-28.714-64-64-64s-64 28.714-64 64c0 11.136 3.030 22.442 8.576 31.872 5.93 10.198 2.518 23.254-7.638 29.226-10.282 5.846-23.254 2.518-29.226-7.638-9.43-16.128-14.422-34.602-14.422-53.462 0.002-58.836 47.83-106.666 106.668-106.666s106.666 47.83 106.752 106.666c0 18.86-4.992 37.334-14.422 53.462z" />
<glyph unicode="&#xe923;" glyph-name="online-shopping-cart" d="M37.882 836.925h108.595l154.687-559.394c4.419-16.416 19.572-27.781 36.619-27.781h475.422c15.153 0 28.412 8.84 34.725 22.729l172.995 397.764c5.052 11.995 3.788 25.254-3.158 35.988s-18.941 17.047-31.569 17.047h-525.298c-20.835 0-37.882-17.047-37.882-37.882s17.047-37.882 37.882-37.882h467.215l-140.164-321.999h-421.757l-154.684 559.394c-4.419 16.416-19.572 27.781-36.619 27.781h-137.009c-20.835 0-37.882-17.047-37.882-37.882s17.047-37.882 37.882-37.882zM301.795-16.69c47.353 0 85.866 38.513 85.866 85.866s-38.513 85.866-85.866 85.866-85.866-38.511-85.866-85.863 38.513-85.868 85.866-85.868zM838.462-16.69c1.894 0 4.419 0 6.313 0 22.729 1.894 43.565 11.995 58.718 29.675 15.153 17.047 22.099 39.146 20.835 62.506-3.158 46.722-44.195 82.71-91.548 79.553s-82.71-44.828-79.553-91.548c3.155-44.828 40.407-80.186 85.235-80.186z" />
<glyph unicode="&#xe924;" glyph-name="photo-camera" d="M0 609.228v-451.814c0-68.963 56.007-124.97 124.97-124.97h774.060c68.963 0 124.97 56.007 124.97 124.97v451.814c0 65.62-53.29 118.909-118.909 118.909h-166.348l-3.971 17.345c-16.091 69.59-77.322 118.073-148.793 118.073h-148.167c-71.262 0-132.493-48.483-148.793-118.073l-3.971-17.345h-166.139c-65.62 0-118.909-53.499-118.909-118.909zM305.528 676.937c11.912 0 22.152 8.15 24.869 19.853l8.568 37.198c10.867 46.184 51.409 78.367 98.847 78.367h148.167c47.438 0 87.98-32.183 98.847-78.367l8.568-37.198c2.717-11.494 12.957-19.853 24.869-19.853h186.619c37.407 0 67.709-30.302 67.709-67.709v-451.814c0-40.751-33.019-73.77-73.77-73.77h-773.851c-40.751 0-73.77 33.019-73.77 73.77v451.814c0 37.407 30.302 67.709 67.709 67.709h186.619zM207.517 567.641c0-18.928-15.344-34.273-34.273-34.273s-34.273 15.344-34.273 34.273c0 18.928 15.344 34.273 34.273 34.273s34.273-15.344 34.273-34.273zM512 163.892c118.491 0 215.040 96.549 215.040 215.040s-96.549 215.040-215.040 215.040-215.040-96.34-215.040-215.040 96.549-215.040 215.040-215.040zM512 542.772c90.279 0 163.84-73.561 163.84-163.84s-73.561-163.84-163.84-163.84-163.84 73.561-163.84 163.84 73.561 163.84 163.84 163.84z" />
<glyph unicode="&#xe925;" glyph-name="placeholder" d="M512 960c-198.504 0-360-161.496-360-360 0-67.068 18.578-132.52 53.738-189.304l285.77-460.514c5.474-8.822 15.118-14.182 25.49-14.182 0.080 0 0.158 0 0.238 0 10.462 0.082 20.126 5.608 25.5 14.584l278.486 464.976c33.22 55.584 50.778 119.362 50.778 184.44 0 198.504-161.496 360-360 360zM769.732 446.364l-253.188-422.736-259.81 418.68c-29.266 47.264-45.134 101.792-45.134 157.692 0 165.42 134.98 300.4 300.4 300.4s300.2-134.98 300.2-300.4c0-54.242-14.822-107.376-42.468-153.636zM512 780c-99.252 0-180-80.748-180-180 0-98.618 79.434-180 180-180 101.806 0 180 82.466 180 180 0 99.252-80.748 180-180 180zM512 479.6c-66.514 0-120.4 54.066-120.4 120.4 0 66.168 54.232 120.4 120.4 120.4s120.2-54.232 120.2-120.4c0-65.366-52.632-120.4-120.2-120.4z" />
<glyph unicode="&#xe926;" glyph-name="purse" d="M979.002 523.017h-14.992v205.008c0 52.384-42.618 95.002-95 95.002h-411.957l-277.925 79.408c-0.080 0.022-0.162 0.034-0.242 0.056-0.082 0.022-0.16 0.054-0.242 0.074-0.168 0.042-0.334 0.062-0.5 0.098-0.258 0.054-0.516 0.11-0.774 0.152-0.234 0.038-0.464 0.062-0.698 0.090-0.272 0.032-0.542 0.060-0.812 0.076-0.22 0.012-0.438 0.014-0.658 0.018-0.28 0.004-0.558 0.006-0.836-0.006-0.206-0.008-0.412-0.028-0.616-0.044-0.286-0.024-0.572-0.050-0.854-0.092-0.192-0.028-0.382-0.064-0.572-0.098-0.292-0.052-0.58-0.108-0.866-0.178-0.178-0.044-0.352-0.094-0.528-0.144-0.292-0.084-0.58-0.17-0.868-0.27-0.162-0.058-0.322-0.12-0.484-0.184-0.29-0.112-0.578-0.23-0.86-0.36-0.15-0.070-0.296-0.146-0.444-0.22-0.282-0.142-0.56-0.286-0.832-0.448-0.142-0.082-0.278-0.17-0.418-0.258-0.268-0.168-0.532-0.34-0.788-0.526-0.134-0.096-0.264-0.2-0.396-0.302-0.246-0.19-0.49-0.384-0.724-0.59-0.132-0.116-0.258-0.238-0.386-0.358-0.22-0.208-0.438-0.416-0.646-0.636-0.13-0.138-0.252-0.282-0.378-0.426-0.19-0.218-0.378-0.438-0.556-0.668-0.128-0.166-0.248-0.336-0.37-0.506-0.158-0.222-0.314-0.446-0.458-0.676-0.124-0.196-0.238-0.4-0.352-0.602-0.126-0.222-0.252-0.446-0.366-0.676-0.112-0.224-0.212-0.454-0.314-0.684-0.1-0.226-0.198-0.452-0.286-0.684-0.092-0.244-0.172-0.494-0.254-0.746-0.052-0.162-0.116-0.314-0.164-0.478-0.024-0.082-0.034-0.162-0.056-0.242-0.022-0.082-0.054-0.16-0.074-0.242l-17.152-68.624h-48.294c-52.278 0-94.822-42.446-94.994-94.686-0.002-0.108-0.016-0.21-0.016-0.316v-519.999c0-8.28 6.74-15 15-15 8.28 0 15 6.72 15 15v450.813c17.008-15.992 39.876-25.82 65.010-25.82h774c0.018 0 0.034 0.002 0.052 0.002 35.816-0.028 64.948-29.176 64.948-65.002v-105.008h-165.024c-0.010 0-0.018-0.002-0.028-0.002-0.434 0-0.866-0.026-1.296-0.064-0.478-0.042-0.95-0.11-1.414-0.196-0.070-0.012-0.138-0.018-0.208-0.032-0.392-0.078-0.776-0.182-1.158-0.29-0.084-0.024-0.17-0.040-0.252-0.066-0.34-0.104-0.67-0.228-1-0.354-0.126-0.048-0.254-0.088-0.38-0.14-0.276-0.114-0.542-0.248-0.808-0.378-0.176-0.084-0.354-0.162-0.526-0.252-0.208-0.11-0.404-0.236-0.604-0.356-0.222-0.132-0.448-0.26-0.664-0.404-0.146-0.096-0.28-0.206-0.42-0.308-0.256-0.184-0.514-0.366-0.758-0.568-0.106-0.088-0.204-0.186-0.306-0.276-0.262-0.228-0.524-0.454-0.772-0.702-0.146-0.146-0.278-0.306-0.416-0.458-0.194-0.21-0.394-0.416-0.578-0.64-0.31-0.378-0.6-0.77-0.872-1.176-0.006-0.006-0.012-0.014-0.016-0.022l-79.996-120.002c-0.558-0.836-1.030-1.722-1.404-2.644-0.142-0.344-0.256-0.694-0.37-1.042-0.034-0.106-0.078-0.208-0.11-0.314-0.112-0.37-0.198-0.744-0.28-1.116-0.022-0.098-0.050-0.194-0.070-0.292-0.066-0.336-0.11-0.674-0.152-1.012-0.018-0.144-0.046-0.288-0.060-0.434-0.028-0.278-0.034-0.554-0.044-0.832-0.010-0.212-0.028-0.424-0.028-0.638 0-0.206 0.018-0.412 0.026-0.618 0.010-0.284 0.018-0.57 0.046-0.854 0.014-0.138 0.040-0.276 0.058-0.414 0.044-0.344 0.088-0.688 0.156-1.030 0.018-0.094 0.046-0.186 0.068-0.28 0.082-0.376 0.17-0.752 0.282-1.126 0.032-0.106 0.076-0.208 0.11-0.316 0.114-0.348 0.228-0.698 0.37-1.042 0.376-0.92 0.848-1.808 1.408-2.646l79.994-119.984c0.004-0.006 0.008-0.010 0.012-0.016 0.322-0.478 0.674-0.934 1.046-1.372 0.122-0.144 0.252-0.278 0.378-0.414 0.254-0.278 0.518-0.546 0.792-0.804 0.162-0.152 0.322-0.3 0.486-0.442 0.292-0.25 0.594-0.484 0.904-0.712 0.14-0.102 0.274-0.214 0.416-0.31 0.45-0.306 0.916-0.588 1.398-0.844 0.122-0.064 0.248-0.118 0.37-0.178 0.384-0.192 0.776-0.37 1.178-0.528 0.156-0.062 0.312-0.118 0.47-0.174 0.382-0.136 0.77-0.256 1.166-0.362 0.162-0.042 0.322-0.086 0.486-0.126 0.406-0.094 0.818-0.166 1.236-0.226 0.152-0.022 0.302-0.052 0.454-0.070 0.516-0.058 1.040-0.090 1.572-0.094 0.042 0 0.084-0.008 0.128-0.008 0.008 0 0.018 0.002 0.028 0.002h164.982v-105.016c0-35.844-29.16-65.004-65-65.004h-773.998c-35.84 0-65 29.16-65 65.004 0 0.078-0.010 0.154-0.012 0.232v59.788c0 8.26-6.72 15-15 15-8.26 0-15-6.74-15-15v-60.020c0-0.156 0.018-0.308 0.024-0.462 0.25-52.172 42.76-94.542 94.988-94.542h773.998c52.378 0 94.992 42.61 95 94.988 0 0.002 0 0.004 0 0.008v105.024h14.992c24.808 0 44.992 20.184 44.992 44.992v240.016c-0.006 24.808-20.19 44.992-44.998 44.992zM185.8 869.328l264.677-75.626c0.012-0.004 0.026-0.006 0.038-0.010l177.392-50.684h-473.679l31.572 126.32zM934.008 637.213c-17.006 15.988-39.87 25.814-64.998 25.814-0.026 0-0.050-0.004-0.078-0.004h-773.922c-35.842 0-65.002 29.16-65.002 65.002s29.16 65.002 65.002 65.002h40.796l-12.5-50.018h-28.292c-8.284 0-15-6.716-15-15s6.716-15 15-15h39.952c0.020 0 0.042-0.004 0.064-0.004 0.016 0 0.032 0.004 0.046 0.004h599.881c0.020 0 0.038-0.004 0.056-0.004 0.016 0 0.032 0.004 0.048 0.004h113.932c8.284 0 15 6.716 15 15s-6.716 15-15 15h-111.886l-175.058 50.018h306.959c35.84 0 65-29.16 65-65.002v-90.812zM993.994 238.017v0c0-8.266-6.726-14.992-14.992-14.992h-201.988l-69.998 104.988 69.998 105.004h201.988c0.21 0 0.414 0.024 0.622 0.032 5.032 0.070 9.864 0.966 14.37 2.562v-197.594zM979.002 463.033c-0.104 0-0.206-0.014-0.31-0.016h-14.682v30h14.992c8.266 0 14.992-6.726 14.992-14.992s-6.726-14.992-14.992-14.992zM828.996 383.015c-30.328 0-55-24.674-55-55.002s24.672-55 55-55 55 24.672 55 55c0 30.328-24.672 55.002-55 55.002zM828.996 303.013c-13.786 0-25 11.214-25 25s11.214 25.002 25 25.002 25-11.216 25-25.002-11.214-25-25-25z" />
<glyph unicode="&#xe927;" glyph-name="star1" d="M512 152.421l316.416-190.821-83.713 359.884 279.297 242.023-368.178 31.591-143.822 339.301-143.82-339.301-368.18-31.591 279.297-242.023-83.713-359.884z" />
<glyph unicode="&#xe928;" glyph-name="stargray" d="M512 152.421l316.416-190.821-83.713 359.884 279.297 242.023-368.178 31.591-143.822 339.301-143.82-339.301-368.18-31.591 279.297-242.023-83.713-359.884z" />
<glyph unicode="&#xe929;" glyph-name="thumbsup" d="M988.798 393.596c23.465 26.877 35.202 58.661 35.202 95.358 0 33.279-12.176 62.075-36.446 86.407-24.319 24.33-53.115 36.489-86.394 36.489h-177.271c1.704 5.972 3.412 11.091 5.115 15.357 1.688 4.266 4.060 8.964 7.034 14.084 2.977 5.122 5.118 8.964 6.393 11.52 7.678 14.499 13.555 26.453 17.612 35.832 4.051 9.397 8.083 22.192 12.15 38.406 4.060 16.205 6.077 32.425 6.077 48.639 0 10.235-0.123 18.563-0.325 24.958-0.2 6.4-1.287 16.003-3.19 28.805-1.932 12.795-4.497 23.463-7.689 31.992-3.206 8.532-8.33 18.139-15.357 28.798-7.043 10.679-15.572 19.307-25.608 25.924-10.033 6.613-22.829 12.159-38.401 16.635-15.588 4.481-33.178 6.72-52.817 6.72-11.091 0-20.683-4.055-28.798-12.163-8.532-8.532-15.797-19.197-21.764-31.992-5.976-12.802-10.139-23.896-12.488-33.286-2.347-9.386-5.017-22.403-7.991-39.038-3.853-17.928-6.72-30.827-8.653-38.719-1.917-7.893-5.66-18.238-11.201-31.035-5.552-12.806-12.159-23.039-19.841-30.724-14.077-14.077-35.621-39.679-64.641-76.795-20.912-27.303-42.456-53.115-64.641-77.437-22.19-24.326-38.401-36.91-48.639-37.764-10.659-0.852-19.834-5.225-27.516-13.122-7.682-7.893-11.522-17.175-11.522-27.839v-410.238c0-11.094 4.051-20.582 12.159-28.475 8.103-7.902 17.704-12.060 28.798-12.488 14.931-0.428 48.639-9.805 101.121-28.168 32.849-11.076 58.551-19.515 77.111-25.267 18.556-5.752 44.494-11.943 77.748-18.565 33.286-6.611 64-9.926 92.153-9.926h82.561c56.76 0.852 98.768 17.498 126.084 49.916 24.738 29.444 35.187 68.058 31.36 115.844 16.637 15.785 28.166 35.83 34.557 60.156 7.243 26.012 7.243 50.974 0 74.863 19.623 26.027 28.798 55.254 27.509 87.681 0.054 13.667-3.138 29.876-9.552 48.656zM225.282 529.915h-184.314c-11.1 0-20.701-4.055-28.807-12.163-8.106-8.103-12.161-17.704-12.161-28.798v-409.614c0-11.078 4.055-20.683 12.163-28.798 8.112-8.094 17.713-12.152 28.807-12.152h184.312c11.091 0 20.688 4.057 28.798 12.152 8.106 8.115 12.159 17.718 12.159 28.798v409.614c0 11.094-4.055 20.692-12.159 28.798-8.108 8.11-17.704 12.163-28.798 12.163zM151.679 132.155c-8.106-7.893-17.704-11.838-28.798-11.838-11.522 0-21.23 3.945-29.119 11.838-7.893 7.893-11.838 17.597-11.838 29.119 0 11.091 3.943 20.695 11.838 28.798 7.89 8.108 17.597 12.167 29.119 12.167 11.094 0 20.692-4.060 28.798-12.167 8.108-8.101 12.163-17.704 12.163-28.798 0-11.522-4.046-21.224-12.163-29.119z" />
<glyph unicode="&#xe92a;" glyph-name="tick-inside-circle" d="M302.080 545.28l-71.68-71.68 230.4-230.4 512 512-71.68 71.68-440.32-440.32-158.72 158.72zM921.6 448c0-225.28-184.32-409.6-409.6-409.6s-409.6 184.32-409.6 409.6 184.32 409.6 409.6 409.6c40.96 0 76.8-5.12 112.64-15.36l81.922 81.92c-61.442 20.48-128.002 35.84-194.562 35.84-281.6 0-512-230.4-512-512s230.4-512 512-512 512 230.4 512 512h-102.4z" />
<glyph unicode="&#xe92b;" glyph-name="tick-orange" d="M302.080 545.28l-71.68-71.68 230.4-230.4 512 512-71.68 71.68-440.32-440.32-158.72 158.72zM921.6 448c0-225.28-184.32-409.6-409.6-409.6s-409.6 184.32-409.6 409.6 184.32 409.6 409.6 409.6c40.96 0 76.8-5.12 112.64-15.36l81.922 81.92c-61.442 20.48-128.002 35.84-194.562 35.84-281.6 0-512-230.4-512-512s230.4-512 512-512 512 230.4 512 512h-102.4z" />
<glyph unicode="&#xe92c;" glyph-name="twitter-logo" d="M1024 765.477c-37.689-16.7-78.129-28.026-120.618-33.083 43.384 25.98 76.594 67.187 92.334 116.139-40.696-24.059-85.616-41.529-133.48-50.999-38.328 40.888-92.846 66.356-153.316 66.356-116.010 0-210.072-94.062-210.072-210.009 0-16.444 1.856-32.505 5.44-47.864-174.559 8.768-329.345 92.399-432.941 219.481-18.109-30.971-28.411-67.059-28.411-105.581 0-72.883 37.113-137.191 93.423-174.815-34.426 1.151-66.804 10.621-95.15 26.363v-2.624c0-101.741 72.435-186.652 168.48-205.978-17.597-4.735-36.153-7.359-55.35-7.359-13.565 0-26.683 1.344-39.544 3.904 26.746-83.505 104.301-144.228 196.188-145.893-71.859-56.31-162.466-89.776-260.879-89.776-16.956 0-33.658 1.024-50.102 2.88 92.975-59.702 203.354-94.511 321.988-94.511 386.423 0 597.648 320.069 597.648 597.648l-0.704 27.195c41.271 29.437 76.976 66.421 105.067 108.526z" />
<glyph unicode="&#xe92d;" glyph-name="up-arrow-key" d="M119.467 132.267l392.533 392.533 392.533-392.533 119.467 119.467-512 512-512-512z" />
<glyph unicode="&#xe92e;" glyph-name="user1" d="M874.040 298.040c-55.766 55.764-122.142 97.046-194.562 122.036 77.564 53.422 128.522 142.828 128.522 243.924 0 163.214-132.786 296-296 296s-296-132.786-296-296c0-101.096 50.958-190.502 128.524-243.924-72.42-24.99-138.796-66.272-194.562-122.036-96.704-96.706-149.962-225.28-149.962-362.040h80c0 238.206 193.794 432 432 432s432-193.794 432-432h80c0 136.76-53.258 265.334-149.96 362.040zM512 448c-119.102 0-216 96.896-216 216s96.898 216 216 216c119.102 0 216-96.896 216-216s-96.898-216-216-216z" />
<glyph unicode="&#xe92f;" glyph-name="userprofile" d="M874.040 298.040c-55.766 55.764-122.142 97.046-194.562 122.036 77.564 53.422 128.522 142.828 128.522 243.924 0 163.214-132.786 296-296 296s-296-132.786-296-296c0-101.096 50.958-190.502 128.524-243.924-72.42-24.99-138.796-66.272-194.562-122.036-96.704-96.706-149.962-225.28-149.962-362.040h80c0 238.206 193.794 432 432 432s432-193.794 432-432h80c0 136.76-53.258 265.334-149.96 362.040zM512 448c-119.102 0-216 96.896-216 216s96.898 216 216 216c119.102 0 216-96.896 216-216s-96.898-216-216-216z" />
<glyph unicode="&#xe930;" glyph-name="wallet" d="M922.889 783.637l-312.612 169.28c-29.655 16.063-70.43 3.707-86.494-25.948l-182.872-339.796h-222.412c-28.419 0-50.66-22.241-50.66-50.66v-549.852c0-28.419 22.241-50.66 50.66-50.66h710.483c28.419 0 50.66 22.241 50.66 50.66v128.505h21.006c11.121 0 19.77 8.649 19.77 19.77v147.039c0 11.121-8.649 19.77-19.77 19.77h-21.006v144.568c0 23.477-17.299 44.482-39.54 49.425l108.735 201.406c16.063 30.891 4.942 69.195-25.948 86.494zM700.477 859.010l-195.228-362.037h-55.603l208.82 384.278 42.011-22.241zM559.616 908.434c6.178 11.121 21.006 16.063 32.126 9.885l30.891-17.299-217.469-404.048h-67.959l222.412 411.462zM106.143 537.748c0 3.707 4.942 9.885 11.121 9.885h201.406l-27.184-49.425h-174.223c-3.707 0-7.414 0-11.121-1.236v40.776zM838.867-13.34c0-6.178-4.942-11.121-11.121-11.121h-710.483c-6.178 0-11.121 4.942-11.121 11.121v459.651c0 6.178 4.942 11.121 11.121 11.121h709.247c6.178 0 11.121-4.942 11.121-11.121v-144.568h-75.373c-33.362 0-59.31-27.184-59.31-59.31v-67.959c0-33.362 27.184-59.31 59.31-59.31h76.609v-128.505zM878.407 262.204h1.236v-107.499h-117.384c-11.121 0-19.77 8.649-19.77 19.77v67.959c0 11.121 8.649 19.77 19.77 19.77h116.148zM913.004 716.913l-118.62-219.941h-244.653l185.343 342.267 168.045-91.436c12.356-4.942 16.063-19.77 9.885-30.891zM837.631 735.447l-9.885 4.942c-24.712 13.592-58.074 3.707-71.666-21.006l-12.356-23.477c-6.178-12.356-8.649-27.184-3.707-40.776 3.707-13.592 13.592-24.712 25.948-30.891l9.885-4.942c7.414-3.707 16.063-6.178 24.712-6.178 19.77 0 37.069 11.121 46.954 27.184l12.356 23.477c12.356 25.948 2.471 58.074-22.241 71.666zM824.039 682.316l-12.356-23.477c-3.707-6.178-12.356-8.649-18.534-4.942l-9.885 6.178c-2.471 1.236-4.942 4.942-6.178 7.414-1.236 3.707-1.236 7.414 1.236 9.885l12.356 23.477c2.471 3.707 7.414 7.414 12.356 7.414 2.471 0 3.707 0 6.178-1.236l9.885-4.942c4.942-4.942 7.414-12.356 4.942-19.77z" />
<glyph unicode="&#xe931;" glyph-name="writing" d="M704.918 520c0 22.092-17.908 40-40 40h-412c-22.092 0-40-17.908-40-40s17.908-40 40-40h412c22.092 0 40 17.908 40 40zM252.918 400c-22.092 0-40-17.908-40-40s17.908-40 40-40h250.222c22.092 0 40 17.908 40 40s-17.908 40-40 40h-250.222zM346.918 16h-133.778c-44.112 0-80 35.888-80 80v704c0 44.112 35.888 80 80 80h491.778c44.112 0 80-35.888 80-80v-246c0-22.092 17.908-40 40-40s40 17.908 40 40v246c0 88.224-71.776 160-160 160h-491.778c-88.224 0-160-71.776-160-160v-704c0-88.224 71.776-160 160-160h133.778c22.092 0 40 17.908 40 40s-17.908 40-40 40zM935.768 380.856c-46.788 46.788-122.916 46.79-169.674 0.032l-219.606-219.12c-4.664-4.654-8.104-10.386-10.020-16.69l-47.826-157.45c-4.24-13.96-0.546-29.118 9.642-39.56 7.632-7.822 18-12.068 28.634-12.068 3.558 0 7.15 0.476 10.676 1.454l161.45 44.722c6.644 1.84 12.7 5.366 17.58 10.238l219.146 218.734c46.788 46.788 46.788 122.916-0.002 169.708zM667.552 56.464l-81.224-22.5 23.77 78.258 148.178 147.85 56.58-56.58-147.304-147.028zM879.23 267.74l-7.75-7.734-56.57 56.57 7.724 7.708c15.596 15.596 40.972 15.596 56.568 0s15.596-40.972 0.028-56.544zM664.918 720h-412c-22.092 0-40-17.908-40-40s17.908-40 40-40h412c22.092 0 40 17.908 40 40s-17.908 40-40 40z" />
<glyph unicode="&#xf000;" glyph-name="glass" d="M970.857 844.571c0-16.571-13.143-33.143-24.571-44.571l-361.143-361.143v-438.857h182.857c20 0 36.571-16.571 36.571-36.571s-16.571-36.571-36.571-36.571h-512c-20 0-36.571 16.571-36.571 36.571s16.571 36.571 36.571 36.571h182.857v438.857l-361.143 361.143c-11.429 11.429-24.571 28-24.571 44.571 0 28 35.429 33.143 56.571 33.143h804.571c21.143 0 56.571-5.143 56.571-33.143z" />
<glyph unicode="&#xf001;" glyph-name="music" horiz-adv-x="878" d="M877.714 822.857v-640c0-80.571-120.571-109.714-182.857-109.714s-182.857 29.143-182.857 109.714 120.571 109.714 182.857 109.714c37.714 0 75.429-6.857 109.714-22.286v306.857l-438.857-135.429v-405.143c0-80.571-120.571-109.714-182.857-109.714s-182.857 29.143-182.857 109.714 120.571 109.714 182.857 109.714c37.714 0 75.429-6.857 109.714-22.286v552.571c0 24 16 45.143 38.857 52.571l475.429 146.286c5.143 1.714 10.286 2.286 16 2.286 30.286 0 54.857-24.571 54.857-54.857z" />
<glyph unicode="&#xf002;" glyph-name="search" horiz-adv-x="951" d="M658.286 475.428c0 141.143-114.857 256-256 256s-256-114.857-256-256 114.857-256 256-256 256 114.857 256 256zM950.857 0c0-40-33.143-73.143-73.143-73.143-19.429 0-38.286 8-51.429 21.714l-196 195.429c-66.857-46.286-146.857-70.857-228-70.857-222.286 0-402.286 180-402.286 402.286s180 402.286 402.286 402.286 402.286-180 402.286-402.286c0-81.143-24.571-161.143-70.857-228l196-196c13.143-13.143 21.143-32 21.143-51.429z" />
<glyph unicode="&#xf003;" glyph-name="envelope-o" d="M950.857 91.428v438.857c-12-13.714-25.143-26.286-39.429-37.714-81.714-62.857-164-126.857-243.429-193.143-42.857-36-96-80-155.429-80h-1.143c-59.429 0-112.571 44-155.429 80-79.429 66.286-161.714 130.286-243.429 193.143-14.286 11.429-27.429 24-39.429 37.714v-438.857c0-9.714 8.571-18.286 18.286-18.286h841.143c9.714 0 18.286 8.571 18.286 18.286zM950.857 692c0 14.286 3.429 39.429-18.286 39.429h-841.143c-9.714 0-18.286-8.571-18.286-18.286 0-65.143 32.571-121.714 84-162.286 76.571-60 153.143-120.571 229.143-181.143 30.286-24.571 85.143-77.143 125.143-77.143h1.143c40 0 94.857 52.571 125.143 77.143 76 60.571 152.571 121.143 229.143 181.143 37.143 29.143 84 92.571 84 141.143zM1024 713.143v-621.714c0-50.286-41.143-91.429-91.429-91.429h-841.143c-50.286 0-91.429 41.143-91.429 91.429v621.714c0 50.286 41.143 91.429 91.429 91.429h841.143c50.286 0 91.429-41.143 91.429-91.429z" />
<glyph unicode="&#xf004;" glyph-name="heart" d="M512 0c-9.143 0-18.286 3.429-25.143 10.286l-356.571 344c-4.571 4-130.286 118.857-130.286 256 0 167.429 102.286 267.429 273.143 267.429 100 0 193.714-78.857 238.857-123.429 45.143 44.571 138.857 123.429 238.857 123.429 170.857 0 273.143-100 273.143-267.429 0-137.143-125.714-252-130.857-257.143l-356-342.857c-6.857-6.857-16-10.286-25.143-10.286z" />
<glyph unicode="&#xf005;" glyph-name="star" horiz-adv-x="951" d="M950.857 581.143c0-10.286-7.429-20-14.857-27.429l-207.429-202.286 49.143-285.714c0.571-4 0.571-7.429 0.571-11.429 0-14.857-6.857-28.571-23.429-28.571-8 0-16 2.857-22.857 6.857l-256.571 134.857-256.571-134.857c-7.429-4-14.857-6.857-22.857-6.857-16.571 0-24 13.714-24 28.571 0 4 0.571 7.429 1.143 11.429l49.143 285.714-208 202.286c-6.857 7.429-14.286 17.143-14.286 27.429 0 17.143 17.714 24 32 26.286l286.857 41.714 128.571 260c5.143 10.857 14.857 23.429 28 23.429s22.857-12.571 28-23.429l128.571-260 286.857-41.714c13.714-2.286 32-9.143 32-26.286z" />
<glyph unicode="&#xf006;" glyph-name="star-o" horiz-adv-x="951" d="M649.714 377.143l174.857 169.714-241.143 35.429-108 218.286-108-218.286-241.143-35.429 174.857-169.714-41.714-240.571 216 113.714 215.429-113.714zM950.857 581.143c0-10.286-7.429-20-14.857-27.429l-207.429-202.286 49.143-285.714c0.571-4 0.571-7.429 0.571-11.429 0-15.429-6.857-28.571-23.429-28.571-8 0-16 2.857-22.857 6.857l-256.571 134.857-256.571-134.857c-7.429-4-14.857-6.857-22.857-6.857-16.571 0-24 13.714-24 28.571 0 4 0.571 7.429 1.143 11.429l49.143 285.714-208 202.286c-6.857 7.429-14.286 17.143-14.286 27.429 0 17.143 17.714 24 32 26.286l286.857 41.714 128.571 260c5.143 10.857 14.857 23.429 28 23.429s22.857-12.571 28-23.429l128.571-260 286.857-41.714c13.714-2.286 32-9.143 32-26.286z" />
<glyph unicode="&#xf007;" glyph-name="user" horiz-adv-x="731" d="M731.429 151.428c0-83.429-54.857-151.429-121.714-151.429h-488c-66.857 0-121.714 68-121.714 151.429 0 150.286 37.143 324 186.857 324 46.286-45.143 109.143-73.143 178.857-73.143s132.571 28 178.857 73.143c149.714 0 186.857-173.714 186.857-324zM585.143 658.286c0-121.143-98.286-219.429-219.429-219.429s-219.429 98.286-219.429 219.429 98.286 219.429 219.429 219.429 219.429-98.286 219.429-219.429z" />
<glyph unicode="&#xf008;" glyph-name="film" horiz-adv-x="1097" d="M219.429 36.571v73.143c0 20-16.571 36.571-36.571 36.571h-73.143c-20 0-36.571-16.571-36.571-36.571v-73.143c0-20 16.571-36.571 36.571-36.571h73.143c20 0 36.571 16.571 36.571 36.571zM219.429 256v73.143c0 20-16.571 36.571-36.571 36.571h-73.143c-20 0-36.571-16.571-36.571-36.571v-73.143c0-20 16.571-36.571 36.571-36.571h73.143c20 0 36.571 16.571 36.571 36.571zM219.429 475.428v73.143c0 20-16.571 36.571-36.571 36.571h-73.143c-20 0-36.571-16.571-36.571-36.571v-73.143c0-20 16.571-36.571 36.571-36.571h73.143c20 0 36.571 16.571 36.571 36.571zM804.571 36.571v292.571c0 20-16.571 36.571-36.571 36.571h-438.857c-20 0-36.571-16.571-36.571-36.571v-292.571c0-20 16.571-36.571 36.571-36.571h438.857c20 0 36.571 16.571 36.571 36.571zM219.429 694.857v73.143c0 20-16.571 36.571-36.571 36.571h-73.143c-20 0-36.571-16.571-36.571-36.571v-73.143c0-20 16.571-36.571 36.571-36.571h73.143c20 0 36.571 16.571 36.571 36.571zM1024 36.571v73.143c0 20-16.571 36.571-36.571 36.571h-73.143c-20 0-36.571-16.571-36.571-36.571v-73.143c0-20 16.571-36.571 36.571-36.571h73.143c20 0 36.571 16.571 36.571 36.571zM804.571 475.428v292.571c0 20-16.571 36.571-36.571 36.571h-438.857c-20 0-36.571-16.571-36.571-36.571v-292.571c0-20 16.571-36.571 36.571-36.571h438.857c20 0 36.571 16.571 36.571 36.571zM1024 256v73.143c0 20-16.571 36.571-36.571 36.571h-73.143c-20 0-36.571-16.571-36.571-36.571v-73.143c0-20 16.571-36.571 36.571-36.571h73.143c20 0 36.571 16.571 36.571 36.571zM1024 475.428v73.143c0 20-16.571 36.571-36.571 36.571h-73.143c-20 0-36.571-16.571-36.571-36.571v-73.143c0-20 16.571-36.571 36.571-36.571h73.143c20 0 36.571 16.571 36.571 36.571zM1024 694.857v73.143c0 20-16.571 36.571-36.571 36.571h-73.143c-20 0-36.571-16.571-36.571-36.571v-73.143c0-20 16.571-36.571 36.571-36.571h73.143c20 0 36.571 16.571 36.571 36.571zM1097.143 786.286v-768c0-50.286-41.143-91.429-91.429-91.429h-914.286c-50.286 0-91.429 41.143-91.429 91.429v768c0 50.286 41.143 91.429 91.429 91.429h914.286c50.286 0 91.429-41.143 91.429-91.429z" />
<glyph unicode="&#xf009;" glyph-name="th-large" horiz-adv-x="951" d="M438.857 365.714v-219.429c0-40-33.143-73.143-73.143-73.143h-292.571c-40 0-73.143 33.143-73.143 73.143v219.429c0 40 33.143 73.143 73.143 73.143h292.571c40 0 73.143-33.143 73.143-73.143zM438.857 804.571v-219.429c0-40-33.143-73.143-73.143-73.143h-292.571c-40 0-73.143 33.143-73.143 73.143v219.429c0 40 33.143 73.143 73.143 73.143h292.571c40 0 73.143-33.143 73.143-73.143zM950.857 365.714v-219.429c0-40-33.143-73.143-73.143-73.143h-292.571c-40 0-73.143 33.143-73.143 73.143v219.429c0 40 33.143 73.143 73.143 73.143h292.571c40 0 73.143-33.143 73.143-73.143zM950.857 804.571v-219.429c0-40-33.143-73.143-73.143-73.143h-292.571c-40 0-73.143 33.143-73.143 73.143v219.429c0 40 33.143 73.143 73.143 73.143h292.571c40 0 73.143-33.143 73.143-73.143z" />
<glyph unicode="&#xf00a;" glyph-name="th" d="M292.571 237.714v-109.714c0-30.286-24.571-54.857-54.857-54.857h-182.857c-30.286 0-54.857 24.571-54.857 54.857v109.714c0 30.286 24.571 54.857 54.857 54.857h182.857c30.286 0 54.857-24.571 54.857-54.857zM292.571 530.286v-109.714c0-30.286-24.571-54.857-54.857-54.857h-182.857c-30.286 0-54.857 24.571-54.857 54.857v109.714c0 30.286 24.571 54.857 54.857 54.857h182.857c30.286 0 54.857-24.571 54.857-54.857zM658.286 237.714v-109.714c0-30.286-24.571-54.857-54.857-54.857h-182.857c-30.286 0-54.857 24.571-54.857 54.857v109.714c0 30.286 24.571 54.857 54.857 54.857h182.857c30.286 0 54.857-24.571 54.857-54.857zM292.571 822.857v-109.714c0-30.286-24.571-54.857-54.857-54.857h-182.857c-30.286 0-54.857 24.571-54.857 54.857v109.714c0 30.286 24.571 54.857 54.857 54.857h182.857c30.286 0 54.857-24.571 54.857-54.857zM658.286 530.286v-109.714c0-30.286-24.571-54.857-54.857-54.857h-182.857c-30.286 0-54.857 24.571-54.857 54.857v109.714c0 30.286 24.571 54.857 54.857 54.857h182.857c30.286 0 54.857-24.571 54.857-54.857zM1024 237.714v-109.714c0-30.286-24.571-54.857-54.857-54.857h-182.857c-30.286 0-54.857 24.571-54.857 54.857v109.714c0 30.286 24.571 54.857 54.857 54.857h182.857c30.286 0 54.857-24.571 54.857-54.857zM658.286 822.857v-109.714c0-30.286-24.571-54.857-54.857-54.857h-182.857c-30.286 0-54.857 24.571-54.857 54.857v109.714c0 30.286 24.571 54.857 54.857 54.857h182.857c30.286 0 54.857-24.571 54.857-54.857zM1024 530.286v-109.714c0-30.286-24.571-54.857-54.857-54.857h-182.857c-30.286 0-54.857 24.571-54.857 54.857v109.714c0 30.286 24.571 54.857 54.857 54.857h182.857c30.286 0 54.857-24.571 54.857-54.857zM1024 822.857v-109.714c0-30.286-24.571-54.857-54.857-54.857h-182.857c-30.286 0-54.857 24.571-54.857 54.857v109.714c0 30.286 24.571 54.857 54.857 54.857h182.857c30.286 0 54.857-24.571 54.857-54.857z" />
<glyph unicode="&#xf00b;" glyph-name="th-list" d="M292.571 237.714v-109.714c0-30.286-24.571-54.857-54.857-54.857h-182.857c-30.286 0-54.857 24.571-54.857 54.857v109.714c0 30.286 24.571 54.857 54.857 54.857h182.857c30.286 0 54.857-24.571 54.857-54.857zM292.571 530.286v-109.714c0-30.286-24.571-54.857-54.857-54.857h-182.857c-30.286 0-54.857 24.571-54.857 54.857v109.714c0 30.286 24.571 54.857 54.857 54.857h182.857c30.286 0 54.857-24.571 54.857-54.857zM1024 237.714v-109.714c0-30.286-24.571-54.857-54.857-54.857h-548.571c-30.286 0-54.857 24.571-54.857 54.857v109.714c0 30.286 24.571 54.857 54.857 54.857h548.571c30.286 0 54.857-24.571 54.857-54.857zM292.571 822.857v-109.714c0-30.286-24.571-54.857-54.857-54.857h-182.857c-30.286 0-54.857 24.571-54.857 54.857v109.714c0 30.286 24.571 54.857 54.857 54.857h182.857c30.286 0 54.857-24.571 54.857-54.857zM1024 530.286v-109.714c0-30.286-24.571-54.857-54.857-54.857h-548.571c-30.286 0-54.857 24.571-54.857 54.857v109.714c0 30.286 24.571 54.857 54.857 54.857h548.571c30.286 0 54.857-24.571 54.857-54.857zM1024 822.857v-109.714c0-30.286-24.571-54.857-54.857-54.857h-548.571c-30.286 0-54.857 24.571-54.857 54.857v109.714c0 30.286 24.571 54.857 54.857 54.857h548.571c30.286 0 54.857-24.571 54.857-54.857z" />
<glyph unicode="&#xf00c;" glyph-name="check" d="M954.857 627.428c0-14.286-5.714-28.571-16-38.857l-491.429-491.429c-10.286-10.286-24.571-16-38.857-16s-28.571 5.714-38.857 16l-284.571 284.571c-10.286 10.286-16 24.571-16 38.857s5.714 28.571 16 38.857l77.714 77.714c10.286 10.286 24.571 16 38.857 16s28.571-5.714 38.857-16l168-168.571 374.857 375.429c10.286 10.286 24.571 16 38.857 16s28.571-5.714 38.857-16l77.714-77.714c10.286-10.286 16-24.571 16-38.857z" />
<glyph unicode="&#xf00d;" glyph-name="close, remove, times" horiz-adv-x="805" d="M741.714 195.428c0-14.286-5.714-28.571-16-38.857l-77.714-77.714c-10.286-10.286-24.571-16-38.857-16s-28.571 5.714-38.857 16l-168 168-168-168c-10.286-10.286-24.571-16-38.857-16s-28.571 5.714-38.857 16l-77.714 77.714c-10.286 10.286-16 24.571-16 38.857s5.714 28.571 16 38.857l168 168-168 168c-10.286 10.286-16 24.571-16 38.857s5.714 28.571 16 38.857l77.714 77.714c10.286 10.286 24.571 16 38.857 16s28.571-5.714 38.857-16l168-168 168 168c10.286 10.286 24.571 16 38.857 16s28.571-5.714 38.857-16l77.714-77.714c10.286-10.286 16-24.571 16-38.857s-5.714-28.571-16-38.857l-168-168 168-168c10.286-10.286 16-24.571 16-38.857z" />
<glyph unicode="&#xf00e;" glyph-name="search-plus" horiz-adv-x="951" d="M585.143 493.714v-36.571c0-9.714-8.571-18.286-18.286-18.286h-128v-128c0-9.714-8.571-18.286-18.286-18.286h-36.571c-9.714 0-18.286 8.571-18.286 18.286v128h-128c-9.714 0-18.286 8.571-18.286 18.286v36.571c0 9.714 8.571 18.286 18.286 18.286h128v128c0 9.714 8.571 18.286 18.286 18.286h36.571c9.714 0 18.286-8.571 18.286-18.286v-128h128c9.714 0 18.286-8.571 18.286-18.286zM658.286 475.428c0 141.143-114.857 256-256 256s-256-114.857-256-256 114.857-256 256-256 256 114.857 256 256zM950.857 0c0-40.571-32.571-73.143-73.143-73.143-19.429 0-38.286 8-51.429 21.714l-196 195.429c-66.857-46.286-146.857-70.857-228-70.857-222.286 0-402.286 180-402.286 402.286s180 402.286 402.286 402.286 402.286-180 402.286-402.286c0-81.143-24.571-161.143-70.857-228l196-196c13.143-13.143 21.143-32 21.143-51.429z" />
<glyph unicode="&#xf010;" glyph-name="search-minus" horiz-adv-x="951" d="M585.143 493.714v-36.571c0-9.714-8.571-18.286-18.286-18.286h-329.143c-9.714 0-18.286 8.571-18.286 18.286v36.571c0 9.714 8.571 18.286 18.286 18.286h329.143c9.714 0 18.286-8.571 18.286-18.286zM658.286 475.428c0 141.143-114.857 256-256 256s-256-114.857-256-256 114.857-256 256-256 256 114.857 256 256zM950.857 0c0-40.571-32.571-73.143-73.143-73.143-19.429 0-38.286 8-51.429 21.714l-196 195.429c-66.857-46.286-146.857-70.857-228-70.857-222.286 0-402.286 180-402.286 402.286s180 402.286 402.286 402.286 402.286-180 402.286-402.286c0-81.143-24.571-161.143-70.857-228l196-196c13.143-13.143 21.143-32 21.143-51.429z" />
<glyph unicode="&#xf011;" glyph-name="power-off" horiz-adv-x="878" d="M877.714 438.857c0-241.714-197.143-438.857-438.857-438.857s-438.857 197.143-438.857 438.857c0 138.857 64 266.857 175.429 350.286 32.571 24.571 78.286 18.286 102.286-14.286 24.571-32 17.714-78.286-14.286-102.286-74.286-56-117.143-141.143-117.143-233.714 0-161.143 131.429-292.571 292.571-292.571s292.571 131.429 292.571 292.571c0 92.571-42.857 177.714-117.143 233.714-32 24-38.857 70.286-14.286 102.286 24 32.571 70.286 38.857 102.286 14.286 111.429-83.429 175.429-211.429 175.429-350.286zM512 877.714v-365.714c0-40-33.143-73.143-73.143-73.143s-73.143 33.143-73.143 73.143v365.714c0 40 33.143 73.143 73.143 73.143s73.143-33.143 73.143-73.143z" />
<glyph unicode="&#xf012;" glyph-name="signal" d="M146.286 128v-109.714c0-10.286-8-18.286-18.286-18.286h-109.714c-10.286 0-18.286 8-18.286 18.286v109.714c0 10.286 8 18.286 18.286 18.286h109.714c10.286 0 18.286-8 18.286-18.286zM365.714 201.143v-182.857c0-10.286-8-18.286-18.286-18.286h-109.714c-10.286 0-18.286 8-18.286 18.286v182.857c0 10.286 8 18.286 18.286 18.286h109.714c10.286 0 18.286-8 18.286-18.286zM585.143 347.428v-329.143c0-10.286-8-18.286-18.286-18.286h-109.714c-10.286 0-18.286 8-18.286 18.286v329.143c0 10.286 8 18.286 18.286 18.286h109.714c10.286 0 18.286-8 18.286-18.286zM804.571 566.857v-548.571c0-10.286-8-18.286-18.286-18.286h-109.714c-10.286 0-18.286 8-18.286 18.286v548.571c0 10.286 8 18.286 18.286 18.286h109.714c10.286 0 18.286-8 18.286-18.286zM1024 859.428v-841.143c0-10.286-8-18.286-18.286-18.286h-109.714c-10.286 0-18.286 8-18.286 18.286v841.143c0 10.286 8 18.286 18.286 18.286h109.714c10.286 0 18.286-8 18.286-18.286z" />
<glyph unicode="&#xf013;" glyph-name="cog, gear" horiz-adv-x="878" d="M585.143 438.857c0 80.571-65.714 146.286-146.286 146.286s-146.286-65.714-146.286-146.286 65.714-146.286 146.286-146.286 146.286 65.714 146.286 146.286zM877.714 501.143v-126.857c0-8.571-6.857-18.857-16-20.571l-105.714-16c-6.286-18.286-13.143-35.429-22.286-52 19.429-28 40-53.143 61.143-78.857 3.429-4 5.714-9.143 5.714-14.286s-1.714-9.143-5.143-13.143c-13.714-18.286-90.857-102.286-110.286-102.286-5.143 0-10.286 2.286-14.857 5.143l-78.857 61.714c-16.571-8.571-34.286-16-52-21.714-4-34.857-7.429-72-16.571-106.286-2.286-9.143-10.286-16-20.571-16h-126.857c-10.286 0-19.429 7.429-20.571 17.143l-16 105.143c-17.714 5.714-34.857 12.571-51.429 21.143l-80.571-61.143c-4-3.429-9.143-5.143-14.286-5.143s-10.286 2.286-14.286 6.286c-30.286 27.429-70.286 62.857-94.286 96-2.857 4-4 8.571-4 13.143 0 5.143 1.714 9.143 4.571 13.143 19.429 26.286 40.571 51.429 60 78.286-9.714 18.286-17.714 37.143-23.429 56.571l-104.571 15.429c-9.714 1.714-16.571 10.857-16.571 20.571v126.857c0 8.571 6.857 18.857 15.429 20.571l106.286 16c5.714 18.286 13.143 35.429 22.286 52.571-19.429 27.429-40 53.143-61.143 78.857-3.429 4-5.714 8.571-5.714 13.714s2.286 9.143 5.143 13.143c13.714 18.857 90.857 102.286 110.286 102.286 5.143 0 10.286-2.286 14.857-5.714l78.857-61.143c16.571 8.571 34.286 16 52 21.714 4 34.857 7.429 72 16.571 106.286 2.286 9.143 10.286 16 20.571 16h126.857c10.286 0 19.429-7.429 20.571-17.143l16-105.143c17.714-5.714 34.857-12.571 51.429-21.143l81.143 61.143c3.429 3.429 8.571 5.143 13.714 5.143s10.286-2.286 14.286-5.714c30.286-28 70.286-63.429 94.286-97.143 2.857-3.429 4-8 4-12.571 0-5.143-1.714-9.143-4.571-13.143-19.429-26.286-40.571-51.429-60-78.286 9.714-18.286 17.714-37.143 23.429-56l104.571-16c9.714-1.714 16.571-10.857 16.571-20.571z" />
<glyph unicode="&#xf014;" glyph-name="trash-o" horiz-adv-x="805" d="M292.571 530.286v-329.143c0-10.286-8-18.286-18.286-18.286h-36.571c-10.286 0-18.286 8-18.286 18.286v329.143c0 10.286 8 18.286 18.286 18.286h36.571c10.286 0 18.286-8 18.286-18.286zM438.857 530.286v-329.143c0-10.286-8-18.286-18.286-18.286h-36.571c-10.286 0-18.286 8-18.286 18.286v329.143c0 10.286 8 18.286 18.286 18.286h36.571c10.286 0 18.286-8 18.286-18.286zM585.143 530.286v-329.143c0-10.286-8-18.286-18.286-18.286h-36.571c-10.286 0-18.286 8-18.286 18.286v329.143c0 10.286 8 18.286 18.286 18.286h36.571c10.286 0 18.286-8 18.286-18.286zM658.286 116.571v541.714h-512v-541.714c0-27.429 15.429-43.429 18.286-43.429h475.429c2.857 0 18.286 16 18.286 43.429zM274.286 731.428h256l-27.429 66.857c-1.714 2.286-6.857 5.714-9.714 6.286h-181.143c-3.429-0.571-8-4-9.714-6.286zM804.571 713.143v-36.571c0-10.286-8-18.286-18.286-18.286h-54.857v-541.714c0-62.857-41.143-116.571-91.429-116.571h-475.429c-50.286 0-91.429 51.429-91.429 114.286v544h-54.857c-10.286 0-18.286 8-18.286 18.286v36.571c0 10.286 8 18.286 18.286 18.286h176.571l40 95.429c11.429 28 45.714 50.857 76 50.857h182.857c30.286 0 64.571-22.857 76-50.857l40-95.429h176.571c10.286 0 18.286-8 18.286-18.286z" />
</font>
</defs>
</svg>
